<ttFont>
          <CharString index="0">
            140 822 rmoveto
            -57 -31 -26 -59 hvcurveto
            -111 -84 callgsubr
            94 vlineto
            27 5 5 27 vhcurveto
            return
          </CharString>
          <CharString index="1">
            340 callsubr
            37 hlineto
            24 470 callgsubr
            -65 50 -90 -296 13 callsubr
            108 -90 -96 vlineto
            -24 -5 -5 -23 336 callgsubr
            return
          </CharString>
          <CharString index="2">
            -90 -366 hlineto
            -57 27 -28 65 vhcurveto
            91 57 callsubr
            -23 -6 5 24 hvcurveto
            return
          </CharString>
          <CharString index="3">
            -103 callgsubr
            29 68 return
          </CharString>
          <CharString index="4">
            rmoveto
            -74 callsubr
            23 vhcurveto
            57 hlineto
            return
          </CharString>
          <CharString index="5">
            -24 -8 -8 -24 -88 callsubr
            return
          </CharString>
          <CharString index="6">
            90 -101 callgsubr
          </CharString>
          <CharString index="7">
            11 11 4 18 24 vvcurveto
            129 vlineto
            13 -3 8 -5 5 vhcurveto
            return
          </CharString>
          <CharString index="8">
            -71 callgsubr
            -89 -101 callsubr
          </CharString>
          <CharString index="9">
            -84 327 callgsubr
            55 285 callgsubr
            -23 hvcurveto
            -103 -35 callgsubr
            -39 476 callsubr
            67 -90 -79 vlineto
            return
          </CharString>
          <CharString index="10">
            -93 callsubr
            101 vlineto
            25 -56 callgsubr
            68 70 -68 -93 callsubr
            123 392 callgsubr
            return
          </CharString>
          <CharString index="11">
            90 380 vlineto
            25 8 7 24 -11 callsubr
            64 27 28 57 hvcurveto
            230 396 callsubr
          </CharString>
          <CharString index="12">
            -53 callsubr
            -24 hvcurveto
            return
          </CharString>
          <CharString index="13">
            -65 -55 callsubr
            return
          </CharString>
          <CharString index="14">
            -28 callgsubr
            25 hvcurveto
            return
          </CharString>
          <CharString index="15">
            -105 callgsubr
            -197 90 197 24 callgsubr
            return
          </CharString>
          <CharString index="16">
            -65 -27 -27 -58 -78 callgsubr
            return
          </CharString>
          <CharString index="17">
            rmoveto
            106 vlineto
            23 6 6 24 vhcurveto
            49 232 callgsubr
            -106 vlineto
            -103 206 90 callsubr
            96 hlineto
            172 callgsubr
            53 -88 -40 vlineto
            -24 -6 -6 -24 vhcurveto
            -46 hlineto
            -24 -6 6 23 hvcurveto
            116 197 183 301 callgsubr
            -65 vhcurveto
            endchar
          </CharString>
          <CharString index="18">
            -86 callgsubr
            -308 vlineto
            -18 callgsubr
            return
          </CharString>
          <CharString index="19">
            vhcurveto
            -38 -80 callgsubr
            return
          </CharString>
          <CharString index="20">
            -69 callgsubr
            156 vlineto
            26 5 5 26 vhcurveto
            71 -187 47 callgsubr
            return
          </CharString>
          <CharString index="21">
            -99 callgsubr
            282 -65 callsubr
            return
          </CharString>
          <CharString index="22">
            25 callgsubr
            304 -90 -315 -41 callsubr
            return
          </CharString>
          <CharString index="23">
            -94 callsubr
            -312 -57 callgsubr
            return
          </CharString>
          <CharString index="24">
            424 callgsubr
            90 -40 callgsubr
          </CharString>
          <CharString index="25">
            -58 callsubr
            vlineto
            return
          </CharString>
          <CharString index="26">
            vlineto
            -90 callgsubr
            return
          </CharString>
          <CharString index="27">
            46 callsubr
            -58 73 callgsubr
            58 -95 callsubr
            -114 102 rmoveto
            -65 80 callsubr
            65 vhcurveto
            502 callsubr
            28 31 57 hvcurveto
            450 440 callsubr
            endchar
          </CharString>
          <CharString index="28">
            vlineto
            -70 callsubr
            return
          </CharString>
          <CharString index="29">
            rmoveto
            -24 -6 -6 -24 vhcurveto
            -55 hlineto
            -24 408 callgsubr
            286 24 callgsubr
            55 19 callsubr
            -6 -24 hvcurveto
            -111 101 rmoveto
            -64 189 callsubr
            64 vhcurveto
            107 hlineto
            65 28 31 57 hvcurveto
            311 vlineto
            58 407 callgsubr
          </CharString>
          <CharString index="30">
            390 callsubr
            168 vlineto
            57 -29 27 -61 2 callgsubr
            6 -5 -24 hvcurveto
            -141 208 callgsubr
            -102 return
          </CharString>
          <CharString index="31">
            vlineto
            -3 callgsubr
            return
          </CharString>
          <CharString index="32">
            vlineto
            -76 callgsubr
            return
          </CharString>
          <CharString index="33">
            -31 callgsubr
            205 -76 callsubr
            return
          </CharString>
          <CharString index="34">
            -79 callsubr
            245 return
          </CharString>
          <CharString index="35">
            -61 31 -28 65 vhcurveto
            -49 callgsubr
          </CharString>
          <CharString index="36">
            25 3 14 16 30 vvcurveto
            139 182 callgsubr
            -91 91 79 -62 callsubr
            36 123 callsubr
            -110 vlineto
            360 callgsubr
            -60 -71 60 hlineto
            24 8 -7 -24 hvcurveto
            -107 -35 callgsubr
            -36 -17 callsubr
            81 -91 -93 vlineto
            -57 27 -30 65 vhcurveto
            91 hlineto
            65 27 30 57 hvcurveto
            117 98 -282 89 556 return
          </CharString>
          <CharString index="37">
            -20 callsubr
            173 callgsubr
            return
          </CharString>
          <CharString index="38">
            -26 -8 -8 -26 vhcurveto
            return
          </CharString>
          <CharString index="39">
            62 hlineto
            18 -60 callsubr
            return
          </CharString>
          <CharString index="40">
            -5 -24 vhcurveto
            -29 -68 57 hlineto
            65 27 28 57 hvcurveto
            230 283 callgsubr
          </CharString>
          <CharString index="41">
            -69 callsubr
            -116 -97 callsubr
            -30 27 -60 418 callsubr
            -30 -27 -57 hvcurveto
            return
          </CharString>
          <CharString index="42">
            -61 callgsubr
            24 vhcurveto
            return
          </CharString>
          <CharString index="43">
            -92 callgsubr
            162 hlineto
            return
          </CharString>
          <CharString index="44">
            57 -27 30 -65 243 callgsubr
            24 vhcurveto
            33 -95 callsubr
            return
          </CharString>
          <CharString index="45">
            vlineto
            -63 callgsubr
            return
          </CharString>
          <CharString index="46">
            rmoveto
            -56 callsubr
            return
          </CharString>
          <CharString index="47">
            11 -71 callgsubr
            return
          </CharString>
          <CharString index="48">
            -37 callsubr
            282 -52 callgsubr
            return
          </CharString>
          <CharString index="49">
            556 72 return
          </CharString>
          <CharString index="50">
            -38 callgsubr
            415 rmoveto
            -39 vlineto
            -48 callsubr
            return
          </CharString>
          <CharString index="51">
            -23 -6 -47 callgsubr
            return
          </CharString>
          <CharString index="52">
            -27 17 callsubr
            return
          </CharString>
          <CharString index="53">
            109 vlineto
            62 -29 27 -68 -37 callgsubr
            return
          </CharString>
          <CharString index="54">
            19 callsubr
            -5 return
          </CharString>
          <CharString index="55">
            -47 callsubr
            230 vlineto
            62 160 callgsubr
            return
          </CharString>
          <CharString index="56">
            vlineto
            -60 31 -25 57 vhcurveto
            37 66 -18 -17 callsubr
            112 122 callsubr
            return
          </CharString>
          <CharString index="57">
            28 61 hvcurveto
            return
          </CharString>
          <CharString index="58">
            52 330 57 -330 rlineto
            37 -218 rmoveto
            91 hlineto
            -119 626 rlineto
            -131 hlineto
            -111 -626 rlineto
            90 hlineto
            23 145 rlineto
            132 hlineto
            endchar
          </CharString>
          <CharString index="59">
            27 -9 -22 12 -31 hhcurveto
            -36 hlineto
            -62 -28 -31 -58 hvcurveto
            -311 -36 callgsubr
            return
          </CharString>
          <CharString index="60">
            27 34 callgsubr
            return
          </CharString>
          <CharString index="61">
            -64 432 callsubr
            64 vhcurveto
            74 hlineto
            24 6 -5 -24 hvcurveto
            -64 vlineto
            -24 -6 96 callgsubr
            return
          </CharString>
          <CharString index="62">
            425 callsubr
            -205 182 callsubr
            81 -90 -92 459 callgsubr
            return
          </CharString>
          <CharString index="63">
            -23 -29 callgsubr
            return
          </CharString>
          <CharString index="64">
            39 callgsubr
            -44 90 55 98 callgsubr
            -78 128 callgsubr
            return
          </CharString>
          <CharString index="65">
            90 380 -8 callsubr
            37 hlineto
            24 6 -5 -25 hvcurveto
            -207 vlineto
            -24 -6 -67 callsubr
          </CharString>
          <CharString index="66">
            -81 callsubr
            245 return
          </CharString>
          <CharString index="67">
            112 callsubr
            -57 25 -28 59 -4 vhcurveto
            -79 -141 112 callgsubr
            57 4 24 28 56 vvcurveto
            -54 callsubr
            return
          </CharString>
          <CharString index="68">
            -76 callsubr
            24 vhcurveto
            return
          </CharString>
          <CharString index="69">
            -17 callgsubr
            -6 7 vhcurveto
            return
          </CharString>
          <CharString index="70">
            -28 callsubr
            57 73 -30 -72 callgsubr
            return
          </CharString>
          <CharString index="71">
            27 59 hvcurveto
            201 vlineto
            13 -3 8 -5 5 vhcurveto
            return
          </CharString>
          <CharString index="72">
            -55 callgsubr
            -6 5 25 hvcurveto
            return
          </CharString>
          <CharString index="73">
            -23 callgsubr
            -61 50 callsubr
            return
          </CharString>
          <CharString index="74">
            124 callsubr
            -179 -64 callgsubr
            return
          </CharString>
          <CharString index="75">
            rlineto
            86 hlineto
            63 124 62 -124 rlineto
            86 hlineto
            return
          </CharString>
          <CharString index="76">
            -56 27 callgsubr
            return
          </CharString>
          <CharString index="77">
            24 5 5 24 80 callgsubr
            return
          </CharString>
          <CharString index="78">
            -26 -6 -6 -26 vhcurveto
            return
          </CharString>
          <CharString index="79">
            -18 callgsubr
            65 vhcurveto
            return
          </CharString>
          <CharString index="80">
            297 callsubr
            -171 vlineto
            -30 14 -16 86 callgsubr
            -30 vvcurveto
            return
          </CharString>
          <CharString index="81">
            3 callgsubr
            71 vlineto
            endchar
          </CharString>
          <CharString index="82">
            -70 247 -24 callsubr
            return
          </CharString>
          <CharString index="83">
            -124 -99 hlineto
            -59 callgsubr
            return
          </CharString>
          <CharString index="84">
            63 -26 callgsubr
            return
          </CharString>
          <CharString index="85">
            -27 -10 -9 -27 vhcurveto
            -31 hlineto
            -24 -5 5 24 hvcurveto
            164 vlineto
            24 5 5 24 vhcurveto
            36 68 -60 233 callsubr
            return
          </CharString>
          <CharString index="86">
            -68 57 hlineto
            65 -52 callsubr
            return
          </CharString>
          <CharString index="87">
            -61 29 -28 146 callgsubr
            return
          </CharString>
          <CharString index="88">
            -13 callsubr
            -90 return
          </CharString>
          <CharString index="89">
            rmoveto
            197 callgsubr
            -55 -86 callsubr
            55 27 callsubr
            return
          </CharString>
          <CharString index="90">
            -28 callgsubr
            24 hvcurveto
            return
          </CharString>
          <CharString index="91">
            rmoveto
            61 hlineto
            -23 callsubr
            196 70 -498 234 callsubr
            474 524 rmoveto
            -64 40 callgsubr
            5 5 23 vhcurveto
            37 hlineto
            24 470 callgsubr
            -65 50 -90 -164 239 callgsubr
            28 68 -52 175 callsubr
            91 207 callsubr
            108 -90 -96 vlineto
            -24 -6 -5 -22 336 callgsubr
            172 -2 rmoveto
            -626 89 556 73 70 vlineto
            endchar
          </CharString>
          <CharString index="92">
            182 -67 callgsubr
            return
          </CharString>
          <CharString index="93">
            52 -28 -24 16 -72 hhcurveto
            -51 -72 32 hlineto
            42 14 -16 -38 20 hvcurveto
            59 113 callgsubr
            return
          </CharString>
          <CharString index="94">
            11 callsubr
            -23 vhcurveto
            return
          </CharString>
          <CharString index="95">
            -38 callgsubr
            376 rmoveto
            82 callgsubr
            -90 vlineto
            return
          </CharString>
          <CharString index="96">
            vhcurveto
            38 hlineto
            24 5 265 callgsubr
            -5 -5 -24 vhcurveto
            -29 -68 57 hlineto
            return
          </CharString>
          <CharString index="97">
            rmoveto
            25 callgsubr
            378 90 vlineto
            return
          </CharString>
          <CharString index="98">
            16 callsubr
            -6 7 vhcurveto
            94 hlineto
            return
          </CharString>
          <CharString index="99">
            vlineto
            22 callsubr
            return
          </CharString>
          <CharString index="100">
            rmoveto
            108 vlineto
            57 -29 31 -65 vhcurveto
            -106 244 callgsubr
            -58 29 -31 64 vhcurveto
            106 hlineto
            65 29 31 58 hvcurveto
            106 -92 -95 vlineto
            -24 -5 239 callsubr
            5 -5 -24 hvcurveto
            -96 vlineto
            endchar
          </CharString>
          <CharString index="101">
            -69 callgsubr
            171 166 callgsubr
            18 -47 31 -62 vhcurveto
            97 445 callsubr
            -3 -9 -4 -17 hhcurveto
            return
          </CharString>
          <CharString index="102">
            vvcurveto
            -70 callgsubr
            return
          </CharString>
          <CharString index="103">
            -17 -11 -3 -7 -8 hvcurveto
            return
          </CharString>
          <CharString index="104">
            rmoveto
            -58 callgsubr
            return
          </CharString>
          <CharString index="105">
            -70 callsubr
            192 86 -192 38 callsubr
          </CharString>
          <CharString index="106">
            -69 callsubr
            -134 -99 callgsubr
            148 40 vlineto
            65 27 29 58 hvcurveto
            134 431 callsubr
            -26 -27 -57 hvcurveto
            -58 60 43 vlineto
            24 5 413 callgsubr
            -107 43 callgsubr
            -361 196 callsubr
            -144 -79 callsubr
            159 84 -159 vlineto
            -61 50 callsubr
            return
          </CharString>
          <CharString index="107">
            -24 -6 -5 -23 vhcurveto
            return
          </CharString>
          <CharString index="108">
            126 callgsubr
            -992 -70 188 hlineto
            -88 callgsubr
            311 425 callgsubr
            -170 hlineto
            -27 -10 -9 -27 vhcurveto
            -31 -93 callsubr
            183 vlineto
            -30 callsubr
            -206 vlineto
            -62 362 callsubr
            58 hlineto
            20 16 4 10 11 hvcurveto
            -26 14 28 -12 43 hhcurveto
            160 -66 callgsubr
          </CharString>
          <CharString index="109">
            rmoveto
            155 callgsubr
            154 callsubr
            return
          </CharString>
          <CharString index="110">
            12 callsubr
            -30 vvcurveto
            return
          </CharString>
          <CharString index="111">
            -378 -103 callsubr
            return
          </CharString>
          <CharString index="112">
            482 rmoveto
            -53 -4 -27 -25 -56 vvcurveto
            -132 -104 callgsubr
            146 hlineto
            return
          </CharString>
          <CharString index="113">
            90 -58 callsubr
            return
          </CharString>
          <CharString index="114">
            25 6 5 return
          </CharString>
          <CharString index="115">
            -24 -8 -8 49 callgsubr
            return
          </CharString>
          <CharString index="116">
            -5 1 callgsubr
            return
          </CharString>
          <CharString index="117">
            7 hlineto
            60 17 30 49 hvcurveto
            23 -77 -14 vlineto
            -20 -5 -4 -14 vhcurveto
            -23 -29 38 -45 hhcurveto
            -9 hlineto
            -59 -19 -30 -50 hvcurveto
            -22 78 return
          </CharString>
          <CharString index="118">
            3 -10 callgsubr
            return
          </CharString>
          <CharString index="119">
            24 168 callgsubr
            -24 -3 -15 -15 return
          </CharString>
          <CharString index="120">
            hlineto
            -28 callsubr
            92 155 callsubr
            return
          </CharString>
          <CharString index="121" raw="1">
            ce1ef770 1d0b  
          </CharString>
          <CharString index="122">
            -28 callsubr
            123 207 callsubr
            117 -90 -105 vlineto
            -24 -6 -5 -22 vhcurveto
            -70 246 callgsubr
            459 129 -176 -7 callgsubr
            -41 -70 69 hlineto
            64 27 27 58 hvcurveto
            190 64 vlineto
            endchar
          </CharString>
          <CharString index="123">
            rmoveto
            -69 callsubr
            -139 62 callsubr
            return
          </CharString>
          <CharString index="124">
            -27 -58 hvcurveto
            return
          </CharString>
          <CharString index="125">
            rmoveto
            95 132 rlineto
            -93 hlineto
            -53 -81 -52 81 rlineto
            -94 hlineto
            96 -132 rlineto
            return
          </CharString>
          <CharString index="126">
            hlineto
            24 6 return
          </CharString>
          <CharString index="127">
            -46 callgsubr
            endchar
          </CharString>
          <CharString index="128">
            124 callsubr
            -191 438 callgsubr
            170 138 callgsubr
            213 73 -192 hlineto
            -26 -5 5 26 hvcurveto
            127 438 callsubr
            213 vlineto
            13 -3 8 -5 5 vhcurveto
            return
          </CharString>
          <CharString index="129">
            25 167 callgsubr
            return
          </CharString>
          <CharString index="130">
            82 callsubr
            -53 22 -28 49 -7 vhcurveto
            -79 -142 -32 callsubr
            -80 144 rlineto
            42 9 19 28 49 vvcurveto
            114 -90 -103 vlineto
            -25 -6 -5 -24 vhcurveto
            -30 -86 callsubr
            endchar
          </CharString>
          <CharString index="131">
            32 callgsubr
            95 hlineto
            166 callsubr
            66 -89 -52 43 callgsubr
            -43 211 callsubr
            43 -95 callsubr
            -52 return
          </CharString>
          <CharString index="132">
            63 hlineto
            17 -60 callsubr
            return
          </CharString>
          <CharString index="133">
            rmoveto
            310 callsubr
            -488 90 380 467 callgsubr
            23 vhcurveto
            35 -95 callsubr
            -386 90 399 256 callgsubr
          </CharString>
          <CharString index="134">
            -53 callsubr
            -25 hvcurveto
            return
          </CharString>
          <CharString index="135">
            hlineto
            -69 callsubr
            -134 -99 callgsubr
            104 390 callsubr
            178 392 callsubr
            5 5 24 vhcurveto
            6 123 callsubr
            -151 -35 callgsubr
            -214 hlineto
            11 11 5 17 25 vvcurveto
            125 vlineto
            13 -3 8 -5 5 vhcurveto
            69 70 -402 -70 219 hlineto
            124 callsubr
            -140 116 callgsubr
            99 -105 callsubr
            185 282 -115 vlineto
            -61 50 callsubr
            return
          </CharString>
          <CharString index="136">
            -5 -28 280 callgsubr
            -23 return
          </CharString>
          <CharString index="137">
            -31 15 -16 24 286 callgsubr
            -24 -2 -15 -15 -31 vvcurveto
            return
          </CharString>
          <CharString index="138">
            vlineto
            -24 -5 -5 -23 50 callgsubr
            return
          </CharString>
          <CharString index="139">
            251 549 rmoveto
            52 -23 25 -55 vhcurveto
            -66 hlineto
            -55 -23 -25 -52 hvcurveto
            -184 vlineto
            -51 23 -26 55 vhcurveto
            66 hlineto
            55 23 26 51 hvcurveto
            361 -104 rmoveto
            51 -23 26 -54 vhcurveto
            -67 hlineto
            -54 -24 -26 -51 hvcurveto
            -184 vlineto
            -51 24 -26 54 vhcurveto
            67 hlineto
            54 23 26 51 hvcurveto
            -435 300 rmoveto
            -23 -4 -5 -22 vhcurveto
            -22 hlineto
            -23 -3 5 23 hvcurveto
            161 vlineto
            22 3 5 23 vhcurveto
            22 hlineto
            22 4 -5 -22 hvcurveto
            361 -450 rmoveto
            -22 -3 -5 -23 vhcurveto
            -21 hlineto
            -23 -4 5 22 hvcurveto
            162 vlineto
            22 4 5 23 vhcurveto
            21 hlineto
            23 3 -5 -22 hvcurveto
            -109 376 rmoveto
            -291 -626 rlineto
            74 hlineto
            292 626 rlineto
            return
          </CharString>
          <CharString index="140">
            27 callgsubr
            -49 -108 vlineto
            -100 callsubr
            return
          </CharString>
          <CharString index="141">
            rmoveto
            -25 9 callsubr
            -54 403 callsubr
            204 199 callgsubr
            25 vhcurveto
            54 477 callsubr
            -201 -204 rmoveto
            -24 -5 -6 -24 vhcurveto
            -54 hlineto
            -24 299 callsubr
            54 hlineto
            24 5 -6 -24 hvcurveto
            363 466 callsubr
            -638 -70 380 -74 -6 vlineto
            6 callgsubr
            -7 74 hlineto
            endchar
          </CharString>
          <CharString index="142">
            180 -3 callsubr
            378 98 vlineto
            return
          </CharString>
          <CharString index="143">
            hlineto
            -69 callsubr
            -134 -99 callgsubr
            158 390 callsubr
            124 392 callsubr
            6 5 23 vhcurveto
            6 123 callsubr
            -97 -35 callgsubr
            -186 hlineto
            -86 callgsubr
            -232 327 callgsubr
            87 73 -59 -72 callgsubr
            206 -52 callgsubr
            32 232 callgsubr
            -122 90 122 406 callsubr
            60 -169 hlineto
            -61 32 -28 65 vhcurveto
            return
          </CharString>
          <CharString index="144">
            59 -31 26 -57 vhcurveto
            return
          </CharString>
          <CharString index="145">
            vlineto
            -72 callsubr
          </CharString>
          <CharString index="146">
            117 callsubr
            -54 hlineto
            -24 return
          </CharString>
          <CharString index="147">
            14 -16 219 callgsubr
            -2 -14 -15 -31 vvcurveto
            return
          </CharString>
          <CharString index="148">
            -32 callsubr
            -78 return
          </CharString>
          <CharString index="149">
            -18 130 callsubr
            return
          </CharString>
          <CharString index="150">
            -70 241 -74 -95 vlineto
            -65 432 callsubr
            65 vhcurveto
            78 353 callsubr
            -70 55 -90 -198 90 75 98 256 callsubr
            88 117 callsubr
            -79 246 callgsubr
            36 -52 callgsubr
            return
          </CharString>
          <CharString index="151">
            -63 callgsubr
            9 -95 callsubr
            -43 60 58 278 callgsubr
            -39 hlineto
            -60 -30 -27 -57 hvcurveto
            return
          </CharString>
          <CharString index="152">
            vlineto
            -9 callgsubr
          </CharString>
          <CharString index="153">
            rmoveto
            -16 callgsubr
            return
          </CharString>
          <CharString index="154">
            -8 253 379 rmoveto
            -23 -5 -6 -24 vhcurveto
            -59 hlineto
            -24 -5 6 23 hvcurveto
            146 406 callsubr
            59 232 callgsubr
            -423 vmoveto
            -24 -5 -6 -24 vhcurveto
            -59 hlineto
            -24 408 callgsubr
            150 406 callsubr
            59 232 callgsubr
            89 286 rmoveto
            279 callsubr
            -109 179 callsubr
            -161 vlineto
            -34 13 -22 26 -6 vhcurveto
            -26 -7 -13 -18 -34 vvcurveto
            -168 171 callgsubr
            109 hlineto
            172 callgsubr
            168 vlineto
            34 -13 18 -26 7 vhcurveto
            26 6 13 22 34 vvcurveto
            endchar
          </CharString>
          <CharString index="155">
            -8 callgsubr
            -104 hlineto
            return
          </CharString>
          <CharString index="156">
            -389 hlineto
            234 callgsubr
            return
          </CharString>
          <CharString index="157">
            31 -28 65 vhcurveto
            return
          </CharString>
          <CharString index="158">
            10 callgsubr
            560 408 rmoveto
            70 -830 415 callgsubr
            104 hlineto
            24 20 8 16 13 hvcurveto
            -17 14 23 -7 32 hhcurveto
            157 callsubr
          </CharString>
          <CharString index="159">
            hlineto
            16 -79 callgsubr
          </CharString>
          <CharString index="160">
            hlineto
            -91 callsubr
            return
          </CharString>
          <CharString index="161">
            rmoveto
            -69 callsubr
            -139 -80 callgsubr
            204 5 callgsubr
            58 vlineto
            13 -3 9 -5 7 vhcurveto
            93 hlineto
            167 callsubr
            -872 -70 496 hlineto
            37 4 -4 -26 hvcurveto
            -45 43 callgsubr
            -263 -274 hlineto
            91 callsubr
            84 -215 vlineto
            38 callgsubr
          </CharString>
          <CharString index="162">
            rmoveto
            382 callsubr
            -151 vlineto
            42 callsubr
            85 452 vlineto
            -611 -408 2 callsubr
            735 478 rmoveto
            -959 70 callsubr
            66 126 callsubr
          </CharString>
          <CharString index="163">
            255 callgsubr
            271 -90 -63 270 callsubr
            176 -65 callsubr
            endchar
          </CharString>
          <CharString index="164">
            207 callsubr
            125 -90 197 callsubr
            -6 -5 -22 vhcurveto
            -38 hlineto
            return
          </CharString>
          <CharString index="165">
            rmoveto
            61 hlineto
            -23 callsubr
            225 70 -527 -6 callgsubr
            153 73 -132 hlineto
            -26 -5 5 26 hvcurveto
            313 75 rmoveto
            334 callsubr
            -56 26 -29 53 -4 vhcurveto
            -112 -160 rlineto
            96 hlineto
            133 193 rlineto
            38 vlineto
            endchar
          </CharString>
          <CharString index="166">
            -18 callgsubr
            64 vhcurveto
            92 57 callsubr
            return
          </CharString>
          <CharString index="167">
            rmoveto
            205 callgsubr
            79 277 callsubr
            357 286 rmoveto
            -162 -215 -105 129 hlineto
            -63 callsubr
            -117 264 callsubr
            -104 -2 callgsubr
            118 105 -98 vlineto
            -276 -298 rlineto
            101 hlineto
            175 191 rlineto
            -135 100 callsubr
          </CharString>
          <CharString index="168">
            -48 callsubr
            -39 return
          </CharString>
          <CharString index="169">
            -80 callgsubr
            129 26 300 callgsubr
            return
          </CharString>
          <CharString index="170">
            rmoveto
            53 -81 rlineto
            93 hlineto
            -95 132 rlineto
            -101 hlineto
            -96 -132 rlineto
            94 hlineto
            return
          </CharString>
          <CharString index="171">
            275 callsubr
            121 callsubr
            23 vhcurveto
            34 123 callsubr
            return
          </CharString>
          <CharString index="172">
            rmoveto
            -266 328 callsubr
            34 248 callgsubr
            135 468 callgsubr
            -70 -93 hlineto
            -64 -27 -27 -55 hvcurveto
            -58 vlineto
            -55 27 -27 64 vhcurveto
            74 19 callsubr
            -4 -24 hvcurveto
            -58 208 callgsubr
            -74 49 -90 -199 90 85 102 hlineto
            65 27 27 55 hvcurveto
            78 vlineto
            7 0 6 -1 6 vhcurveto
            101 -79 hlineto
            -234 -237 rlineto
            96 hlineto
            138 146 rlineto
            -94 -101 callsubr
          </CharString>
          <CharString index="173">
            -70 66 83 callgsubr
            return
          </CharString>
          <CharString index="174">
            -61 29 -28 67 vhcurveto
            115 callsubr
          </CharString>
          <CharString index="175">
            rmoveto
            205 223 rlineto
            106 vlineto
            -306 -329 rlineto
            81 289 rmoveto
            205 callgsubr
            79 277 callsubr
            90 71 rmoveto
            129 vlineto
            -63 callsubr
            -117 264 callsubr
            -104 -2 callgsubr
            118 135 71 vlineto
            endchar
          </CharString>
          <CharString index="176">
            -103 callsubr
            335 214 rmoveto
            return
          </CharString>
          <CharString index="177">
            48 callgsubr
            380 -8 callsubr
            return
          </CharString>
          <CharString index="178">
            hlineto
            176 191 rlineto
            -135 -101 callsubr
          </CharString>
          <CharString index="179">
            -42 119 524 rmoveto
            -3 callgsubr
            24 vhcurveto
            39 -95 callsubr
            -142 43 callgsubr
            -75 -72 75 -95 callsubr
            -150 43 callgsubr
            -39 -89 callgsubr
            93 -90 -107 171 callgsubr
            92 hlineto
            166 callsubr
            172 vlineto
            33 -13 19 -27 6 vhcurveto
            27 6 13 22 34 vvcurveto
            158 vlineto
            57 -29 31 -65 vhcurveto
            -92 179 callsubr
            -108 90 vlineto
            endchar
          </CharString>
          <CharString index="180">
            144 73 -144 193 174 73 -265 -626 272 73 return
          </CharString>
          <CharString index="181">
            133 64 callsubr
            -121 -289 149 62 70 -395 -70 243 -149 -95 124 callgsubr
            -155 vlineto
            -61 29 -28 67 vhcurveto
            85 -83 callgsubr
            169 99 vlineto
            -1 -4 28 callgsubr
            -155 224 callgsubr
            169 99 -169 vlineto
            -61 return
          </CharString>
          <CharString index="182">
            177 callsubr
            244 callsubr
            386 -90 return
          </CharString>
          <CharString index="183">
            rmoveto
            -100 hlineto
            -82 -132 rlineto
            77 hlineto
            return
          </CharString>
          <CharString index="184">
            170 callgsubr
            -197 90 197 24 callgsubr
            60 -412 90 556 67 hlineto
            endchar
          </CharString>
          <CharString index="185">
            346 callgsubr
            -367 -184 rmoveto
            -25 -6 -5 -23 vhcurveto
            -27 340 callgsubr
            57 hlineto
            return
          </CharString>
          <CharString index="186">
            27 -9 -22 12 -31 hhcurveto
            -36 402 callsubr
            -304 vlineto
            -58 -41 callgsubr
            -83 vlineto
            -23 -6 -6 -24 vhcurveto
            -141 -71 167 hlineto
            65 29 30 58 hvcurveto
            538 return
          </CharString>
          <CharString index="187">
            97 callsubr
            -57 29 -31 return
          </CharString>
          <CharString index="188">
            rmoveto
            -105 121 105 hlineto
            -195 -323 46 callsubr
            -45 398 callsubr
            24 6 5 24 vhcurveto
            75 hlineto
            357 261 rmoveto
            -602 -70 245 -121 -99 hlineto
            364 callgsubr
            105 -123 vlineto
            -276 -298 rlineto
            101 hlineto
            175 191 rlineto
            -135 100 callsubr
          </CharString>
          <CharString index="189">
            rmoveto
            144 69 70 -406 112 callsubr
            return
          </CharString>
          <CharString index="190">
            -65 84 callsubr
            return
          </CharString>
          <CharString index="191">
            -27 65 callgsubr
            return
          </CharString>
          <CharString index="192">
            -165 -242 rlineto
            102 hlineto
            135 198 rlineto
            return
          </CharString>
          <CharString index="193">
            -91 callgsubr
            204 vlineto
            5 -7 return
          </CharString>
          <CharString index="194">
            rmoveto
            -69 callgsubr
            177 vlineto
            5 -6 15 -26 33 -55 72 -117 rcurveline
            -2 -5 -6 -1 -8 hhcurveto
            203 454 rmoveto
            -465 -70 302 -210 hlineto
            -89 6 -40 0 vhcurveto
            0 -23 43 -29 45 vhcurveto
            -69 109 247 callsubr
            -206 vlineto
            -62 362 callsubr
            45 hlineto
            -103 -154 rlineto
            98 hlineto
            106 164 rlineto
            -112 499 callgsubr
          </CharString>
          <CharString index="195">
            -90 hlineto
            22 -54 25 -56 14 -40 22 -40 rlinecurve
            -4 hlineto
            -26 43 -29 38 -55 61 -42 48 rcurveline
            -114 hlineto
            return
          </CharString>
          <CharString index="196">
            192 callgsubr
            205 295 callgsubr
            70 return
          </CharString>
          <CharString index="197">
            rmoveto
            32 callgsubr
            return
          </CharString>
          <CharString index="198">
            25 callgsubr
            274 -90 -285 240 callsubr
            return
          </CharString>
          <CharString index="199">
            vhcurveto
            87 73 -59 328 callsubr
            281 vlineto
            25 -56 callgsubr
            31 hlineto
            25 5 -6 -24 hvcurveto
            -197 90 197 24 callgsubr
            60 -412 90 556 66 hlineto
            endchar
          </CharString>
          <CharString index="200">
            -15 250 359 callgsubr
            -53 -89 callgsubr
            186 83 vlineto
            24 6 -6 -23 hvcurveto
            -113 101 rmoveto
            164 458 callsubr
            -94 89 108 257 callsubr
            -103 hlineto
            -65 80 callsubr
            65 vhcurveto
            106 hlineto
            172 callgsubr
            183 vlineto
            58 407 callsubr
            endchar
          </CharString>
          <CharString index="201">
            -94 callsubr
            -46 callgsubr
            return
          </CharString>
          <CharString index="202">
            207 callsubr
            127 39 callsubr
            return
          </CharString>
          <CharString index="203">
            -91 callgsubr
            204 -61 callgsubr
            return
          </CharString>
          <CharString index="204">
            213 callgsubr
            -450 vlineto
            return
          </CharString>
          <CharString index="205">
            hlineto
            -92 callgsubr
            return
          </CharString>
          <CharString index="206">
            rmoveto
            -100 callgsubr
            return
          </CharString>
          <CharString index="207">
            91 149 callsubr
          </CharString>
          <CharString index="208">
            -72 callgsubr
            282 vlineto
            24 6 5 23 184 callsubr
          </CharString>
          <CharString index="209">
            vlineto
            23 6 5 23 vhcurveto
            return
          </CharString>
          <CharString index="210">
            105 callgsubr
            381 406 rmoveto
            -597 -70 246 -74 -92 hlineto
            114 callsubr
            99 148 callsubr
          </CharString>
          <CharString index="211">
            391 callsubr
            -53 85 callgsubr
            23 vhcurveto
            38 70 -219 191 callsubr
            return
          </CharString>
          <CharString index="212">
            359 callsubr
            -61 245 callgsubr
            -84 -43 vlineto
            -58 29 -31 65 vhcurveto
            return
          </CharString>
          <CharString index="213">
            hlineto
            115 callgsubr
            return
          </CharString>
          <CharString index="214">
            142 callsubr
            141 rlineto
            return
          </CharString>
          <CharString index="215">
            257 callgsubr
            60 vhcurveto
            return
          </CharString>
          <CharString index="216">
            rmoveto
            -573 -70 411 -223 -97 62 hlineto
            425 callsubr
            -133 182 callsubr
            18 -90 -29 459 callgsubr
            23 97 -20 vlineto
            -277 -298 rlineto
            101 71 callsubr
          </CharString>
          <CharString index="217">
            200 callsubr
            60 245 callsubr
            -71 -71 vlineto
            -57 -29 -26 -59 hvcurveto
            -41 79 29 -65 callsubr
            48 -104 86 425 -86 -91 hlineto
            490 callgsubr
            -42 60 callgsubr
            endchar
          </CharString>
          <CharString index="218">
            55 -27 27 -55 vhcurveto
            -78 hlineto
            -28 -5 5 27 hvcurveto
            29 -90 -50 vlineto
            -55 27 -27 55 vhcurveto
            79 246 callsubr
            -31 return
          </CharString>
          <CharString index="219">
            165 callgsubr
            -308 vlineto
            return
          </CharString>
          <CharString index="220">
            rmoveto
            212 229 rlineto
            108 vlineto
            -312 -337 rlineto
            14 276 105 callgsubr
            -216 406 rmoveto
            -70 246 -74 -92 vlineto
            114 callsubr
            135 70 vlineto
            endchar
          </CharString>
          <CharString index="221">
            -69 -31 -27 -59 hvcurveto
            -157 vlineto
            -61 29 -28 67 vhcurveto
            90 -83 callgsubr
            317 return
          </CharString>
          <CharString index="222">
            74 hlineto
            67 30 204 callsubr
          </CharString>
          <CharString index="223">
            24 5 -5 -24 hvcurveto
            return
          </CharString>
          <CharString index="224">
            267 callgsubr
            -65 vhcurveto
            return
          </CharString>
          <CharString index="225">
            -61 32 -28 65 vhcurveto
            23 callgsubr
          </CharString>
          <CharString index="226">
            rmoveto
            102 -480 rlineto
            49 hlineto
            -10 -41 rlineto
            -27 -7 -18 -6 -27 hhcurveto
            -41 -72 60 hlineto
            66 35 32 59 14 hvcurveto
            103 535 rlineto
            -91 hlineto
            -69 -409 -74 409 rlineto
            return
          </CharString>
          <CharString index="227">
            14 callgsubr
            -42 358 callgsubr
            -91 -92 171 callgsubr
            return
          </CharString>
          <CharString index="228">
            154 callgsubr
            6 5 return
          </CharString>
          <CharString index="229">
            -62 callsubr
            19 hlineto
            24 return
          </CharString>
          <CharString index="230">
            285 callgsubr
            -24 hvcurveto
            return
          </CharString>
          <CharString index="231">
            26 6 -6 -26 hvcurveto
            return
          </CharString>
          <CharString index="232">
            hlineto
            25 callgsubr
            304 -90 -157 394 callsubr
            -105 hlineto
            -64 -28 65 callgsubr
            129 hlineto
            22 14 6 15 6 hvcurveto
            -15 15 24 -6 33 hhcurveto
            78 473 callgsubr
            return
          </CharString>
          <CharString index="233">
            -245 223 callsubr
            245 84 -412 -101 callsubr
          </CharString>
          <CharString index="234">
            195 callgsubr
            -5 -5 -24 vhcurveto
            return
          </CharString>
          <CharString index="235">
            -70 72 49 callsubr
            return
          </CharString>
          <CharString index="236">
            -17 callsubr
            164 return
          </CharString>
          <CharString index="237">
            -11 -3 -8 -8 hvcurveto
            return
          </CharString>
          <CharString index="238">
            69 -89 -58 vlineto
            133 callsubr
            202 return
          </CharString>
          <CharString index="239">
            vlineto
            65 26 callgsubr
            return
          </CharString>
          <CharString index="240">
            197 callgsubr
            -82 -99 callgsubr
            119 -61 callgsubr
            23 vhcurveto
            return
          </CharString>
          <CharString index="241">
            0 348 341 callsubr
            69 70 -437 -70 277 -74 -116 vlineto
            -94 callsubr
            -42 vlineto
            -28 callsubr
            100 hlineto
            24 5 -5 -23 hvcurveto
            -25 -7 callgsubr
            -85 476 callsubr
            22 -90 -44 vlineto
            -32 481 callsubr
            -31 vvcurveto
            return
          </CharString>
          <CharString index="242">
            -23 237 hmoveto
            90 271 -90 -63 hlineto
            -24 -8 -8 -24 vhcurveto
            -37 -80 callgsubr
            176 -65 callsubr
            153 193 callsubr
            27 callgsubr
            -206 180 callgsubr
            2 hlineto
            496 callgsubr
            return
          </CharString>
          <CharString index="243">
            182 266 callgsubr
            return
          </CharString>
          <CharString index="244">
            129 callsubr
            -62 callsubr
            return
          </CharString>
          <CharString index="245">
            -412 296 callsubr
          </CharString>
          <CharString index="246">
            -57 28 -28 58 vhcurveto
            return
          </CharString>
          <CharString index="247">
            rmoveto
            -580 -70 418 -74 -174 -264 hlineto
            427 callsubr
            -275 vlineto
            446 callsubr
            84 -212 vlineto
            -241 -252 rlineto
            102 hlineto
            139 149 rlineto
            -97 -101 callsubr
          </CharString>
          <CharString index="248">
            -81 callgsubr
            103 -90 return
          </CharString>
          <CharString index="249">
            -79 -141 41 callsubr
            return
          </CharString>
          <CharString index="250">
            rmoveto
            -417 -70 255 -350 hlineto
            -25 9 callsubr
            -40 462 callsubr
            319 callgsubr
            -206 367 callsubr
            -82 callsubr
            endchar
          </CharString>
          <CharString index="251">
            461 callgsubr
            -26 -99 callgsubr
            205 vlineto
            24 return
          </CharString>
          <CharString index="252">
            hlineto
            27 5 227 callgsubr
            return
          </CharString>
          <CharString index="253">
            rmoveto
            -450 -70 288 -376 hlineto
            -24 -8 -8 -24 vhcurveto
            -54 -80 callgsubr
            204 vlineto
            203 callsubr
            -213 169 callgsubr
          </CharString>
          <CharString index="254">
            hlineto
            -31 -15 -15 -24 -2 hvcurveto
            -3 hlineto
            24 -2 -16 15 -31 hhcurveto
            -86 hlineto
            -60 -30 -28 -61 hvcurveto
            -251 327 callgsubr
            87 73 -59 -72 callgsubr
            224 -61 callgsubr
            23 vhcurveto
            32 hlineto
            24 5 -6 -24 hvcurveto
            -164 90 164 24 callgsubr
            return
          </CharString>
          <CharString index="255">
            -314 vlineto
            -276 -298 rlineto
            100 71 callsubr
          </CharString>
          <CharString index="256">
            556 71 vlineto
            endchar
          </CharString>
          <CharString index="257">
            rmoveto
            102 hlineto
            184 198 rlineto
            101 vlineto
            -399 -40 rmoveto
            446 callsubr
            129 70 -219 -264 vlineto
            427 callsubr
            vlineto
            -64 74 rmoveto
            463 70 -463 hlineto
            endchar
          </CharString>
          <CharString index="258">
            377 callsubr
            3 callsubr
            -131 vlineto
            -58 362 callsubr
            return
          </CharString>
          <CharString index="259">
            hvcurveto
            -137 vlineto
            -30 15 -16 3 callsubr
            return
          </CharString>
          <CharString index="260">
            hlineto
            210 callsubr
            return
          </CharString>
          <CharString index="261">
            -376 326 callsubr
            return
          </CharString>
          <CharString index="262">
            hlineto
            64 -47 callsubr
            return
          </CharString>
          <CharString index="263">
            29 31 57 hvcurveto
            return
          </CharString>
          <CharString index="264">
            179 callgsubr
            23 6 -5 -25 hvcurveto
            -207 vlineto
            -24 -6 -5 -23 vhcurveto
            -30 -68 57 hlineto
            65 27 28 57 hvcurveto
            230 396 callsubr
          </CharString>
          <CharString index="265">
            vlineto
            -28 callsubr
            227 callsubr
            108 -91 -96 vlineto
            -24 -5 -5 -23 vhcurveto
            -37 129 callsubr
            86 -14 callgsubr
            172 -2 rmoveto
            -626 90 464 callsubr
          </CharString>
          <CharString index="266">
            27 5 5 27 vhcurveto
            35 70 -49 hlineto
            -59 -29 -28 -54 -25 4 -41 7 -32 hvcurveto
            -2 hlineto
            -10 28 -14 30 -23 32 -41 58 rcurveline
            -106 hlineto
            return
          </CharString>
          <CharString index="267">
            -27 -10 -9 -27 vhcurveto
            -31 -17 callsubr
            175 vlineto
            -30 callsubr
            -198 vlineto
            234 callgsubr
            58 hlineto
            20 14 5 10 8 hvcurveto
            -32 12 29 -15 49 hhcurveto
            74 hlineto
            67 173 callgsubr
            245 return
          </CharString>
          <CharString index="268">
            226 callgsubr
            -26 -99 callgsubr
            205 vlineto
            24 return
          </CharString>
          <CharString index="269">
            -84 hlineto
            -30 370 callgsubr
            -16 14 -30 hhcurveto
            -87 441 callgsubr
            -213 326 callsubr
            return
          </CharString>
          <CharString index="270">
            300 callgsubr
            -7 7 vhcurveto
            94 hlineto
            return
          </CharString>
          <CharString index="271">
            rmoveto
            -82 132 rlineto
            -100 hlineto
            105 -132 rlineto
            return
          </CharString>
          <CharString index="272" raw="1">
            91f79d1d 85860b  
          </CharString>
          <CharString index="273">
            65 156 callsubr
            return
          </CharString>
          <CharString index="274">
            162 70 rmoveto
            return
          </CharString>
          <CharString index="275">
            -70 187 hlineto
            41 3 -5 -28 hvcurveto
            -105 -35 callgsubr
            -77 -71 77 123 callsubr
            -192 -35 callgsubr
            -40 476 callsubr
            113 -90 -125 455 callsubr
            return
          </CharString>
          <CharString index="276">
            hlineto
            127 callsubr
            return
          </CharString>
          <CharString index="277">
            325 callgsubr
            94 hlineto
            return
          </CharString>
          <CharString index="278">
            63 hlineto
            17 11 3 return
          </CharString>
          <CharString index="279">
            hlineto
            27 8 8 28 vhcurveto
            31 70 -44 hlineto
            -48 -23 -26 -37 -35 8 -45 1 -3 hvcurveto
            -4 hlineto
            -4 22 -9 35 -10 33 -13 41 rcurveline
            -90 hlineto
            35 -62 29 -52 21 -32 34 -44 rlinecurve
            -5 hlineto
            -33 44 -30 34 -61 64 -47 48 rcurveline
            -114 hlineto
            return
          </CharString>
          <CharString index="280">
            -18 callgsubr
            64 vhcurveto
            227 callsubr
            108 -90 -96 274 callsubr
            164 86 vlineto
            69 31 27 59 hvcurveto
            194 vlineto
            57 -27 30 -64 493 callsubr
            return
          </CharString>
          <CharString index="281">
            30 callgsubr
            -28 callsubr
            return
          </CharString>
          <CharString index="282">
            233 callsubr
            -40 vlineto
            -28 callsubr
            return
          </CharString>
          <CharString index="283">
            50 callgsubr
            181 275 221 callgsubr
          </CharString>
          <CharString index="284">
            -26 -10 -9 -23 vhcurveto
            return
          </CharString>
          <CharString index="285">
            194 hlineto
            -205 -481 rlineto
            -73 292 73 -200 vlineto
            205 481 rlineto
            return
          </CharString>
          <CharString index="286">
            hlineto
            228 callsubr
            return
          </CharString>
          <CharString index="287">
            -54 callgsubr
            -327 228 99 callsubr
            return
          </CharString>
          <CharString index="288">
            rmoveto
            22 4 7 24 vhcurveto
            24 hlineto
            23 5 -7 -22 hvcurveto
            -146 vlineto
            -22 -5 -7 -23 vhcurveto
            -24 hlineto
            -24 -4 7 22 hvcurveto
            return
          </CharString>
          <CharString index="289">
            vlineto
            -31 callgsubr
            return
          </CharString>
          <CharString index="290">
            rmoveto
            -101 -94 101 hlineto
            -189 94 rmoveto
            -102 -94 102 hlineto
            return
          </CharString>
          <CharString index="291">
            vhcurveto
            93 138 callsubr
          </CharString>
          <CharString index="292">
            -70 196 callgsubr
            return
          </CharString>
          <CharString index="293">
            -1 44 167 rmoveto
            -90 callgsubr
            245 132 70 -222 -304 352 callgsubr
            304 -90 vlineto
            -64 74 rmoveto
            466 70 -466 hlineto
            return
          </CharString>
          <CharString index="294">
            rmoveto
            -112 vlineto
            -50 8 -35 0 vhcurveto
            0 -21 47 -30 42 vhcurveto
            -75 108 rlineto
            733 70 rmoveto
            -918 -70 72 -224 hlineto
            -30 40 callsubr
            -144 vlineto
            -61 29 -28 67 vhcurveto
            return
          </CharString>
          <CharString index="295">
            -113 vlineto
            -24 -5 -5 -23 176 callsubr
          </CharString>
          <CharString index="296">
            -28 97 callgsubr
            28 -31 return
          </CharString>
          <CharString index="297">
            192 callsubr
            142 callgsubr
            return
          </CharString>
          <CharString index="298">
            127 callgsubr
            74 hlineto
            return
          </CharString>
          <CharString index="299">
            -70 264 -74 -100 vlineto
            -94 callsubr
            return
          </CharString>
          <CharString index="300">
            144 72 70 -417 -70 255 -74 -91 return
          </CharString>
          <CharString index="301">
            43 -9 57 0 vhcurveto
            0 19 -43 28 -40 vhcurveto
            return
          </CharString>
          <CharString index="302">
            -74 249 callgsubr
            return
          </CharString>
          <CharString index="303">
            hlineto
            0 callgsubr
            return
          </CharString>
          <CharString index="304">
            -113 vlineto
            -24 return
          </CharString>
          <CharString index="305">
            -43 -19 -19 -34 hvcurveto
            -19 -3 vlineto
            25 -17 18 -40 vhcurveto
            -267 225 callsubr
            6 5 26 vhcurveto
            215 420 callsubr
            70 -72 return
          </CharString>
          <CharString index="306">
            242 callsubr
            207 102 callsubr
            94 400 callgsubr
            161 52 callsubr
          </CharString>
          <CharString index="307">
            203 callgsubr
            -230 vlineto
            -61 29 -28 67 vhcurveto
            return
          </CharString>
          <CharString index="308">
            -43 -19 -19 -34 hvcurveto
            -19 -3 vlineto
            25 -17 18 -40 vhcurveto
            -98 225 callsubr
            5 5 27 vhcurveto
            46 420 callsubr
            70 -72 return
          </CharString>
          <CharString index="309">
            288 callgsubr
            120 -26 callsubr
          </CharString>
          <CharString index="310">
            28 7 2 35 vhcurveto
            25 70 -219 372 callgsubr
            return
          </CharString>
          <CharString index="311">
            -50 callsubr
            245 82 -412 -101 callsubr
          </CharString>
          <CharString index="312">
            -187 60 626 rmoveto
            -626 90 626 vlineto
            return
          </CharString>
          <CharString index="313">
            41 482 callsubr
            return
          </CharString>
          <CharString index="314">
            hlineto
            65 -47 callsubr
            return
          </CharString>
          <CharString index="315">
            502 callgsubr
            -14 vvcurveto
            -112 318 callgsubr
            -123 180 callgsubr
            24 hlineto
            74 401 callgsubr
            118 181 rlineto
            return
          </CharString>
          <CharString index="316">
            vlineto
            95 callgsubr
            return
          </CharString>
          <CharString index="317">
            -90 callgsubr
            389 return
          </CharString>
          <CharString index="318">
            hlineto
            72 callgsubr
            return
          </CharString>
          <CharString index="319">
            121 rlineto
            75 68 return
          </CharString>
          <CharString index="320">
            -327 hlineto
            222 callsubr
          </CharString>
          <CharString index="321">
            vlineto
            -57 28 -31 62 vhcurveto
            70 hlineto
            36 25 20 22 8 hvcurveto
            -22 9 25 -20 37 hhcurveto
            77 hlineto
            172 callgsubr
            53 -89 -40 43 callgsubr
            -45 -17 callsubr
            114 return
          </CharString>
          <CharString index="322">
            141 callsubr
            -366 hlineto
            -18 callgsubr
            65 vhcurveto
            return
          </CharString>
          <CharString index="323">
            15 5 8 12 vhcurveto
            24 30 -38 47 hhcurveto
            return
          </CharString>
          <CharString index="324">
            rmoveto
            226 callsubr
            return
          </CharString>
          <CharString index="325">
            rmoveto
            77 hlineto
            105 132 rlineto
            -100 hlineto
            return
          </CharString>
          <CharString index="326">
            246 -120 -92 return
          </CharString>
          <CharString index="327">
            -70 callgsubr
            endchar
          </CharString>
          <CharString index="328">
            -20 callgsubr
            -98 55 callgsubr
            30 7 2 37 vhcurveto
            117 hlineto
            return
          </CharString>
          <CharString index="329">
            -28 callsubr
            91 330 callsubr
            274 -278 -101 callsubr
          </CharString>
          <CharString index="330">
            hlineto
            -90 callgsubr
            return
          </CharString>
          <CharString index="331">
            rmoveto
            8 callsubr
            return
          </CharString>
          <CharString index="332">
            hlineto
            -57 -31 -26 -59 hvcurveto
            -68 90 51 vlineto
            27 return
          </CharString>
          <CharString index="333">
            -4 callsubr
            114 return
          </CharString>
          <CharString index="334">
            92 207 callsubr
            return
          </CharString>
          <CharString index="335">
            -64 213 callgsubr
            return
          </CharString>
          <CharString index="336">
            vlineto
            234 callgsubr
            114 hlineto
            14 10 2 5 8 hvcurveto
            -85 499 callgsubr
          </CharString>
          <CharString index="337">
            322 callgsubr
            -7 7 vhcurveto
            94 hlineto
            return
          </CharString>
          <CharString index="338">
            hlineto
            -24 -6 5 23 hvcurveto
            return
          </CharString>
          <CharString index="339">
            -70 219 hlineto
            215 callsubr
            185 68 -158 246 callgsubr
            183 return
          </CharString>
          <CharString index="340">
            27 callgsubr
            -187 vlineto
            234 callgsubr
            54 hlineto
            20 13 5 10 7 hvcurveto
            return
          </CharString>
          <CharString index="341">
            -6 callgsubr
            242 73 -221 hlineto
            -26 -5 5 26 hvcurveto
            return
          </CharString>
          <CharString index="342">
            487 callgsubr
            484 99 -95 callsubr
            -220 100 rmoveto
            -626 214 callgsubr
          </CharString>
          <CharString index="343">
            353 callgsubr
            -32 65 vhcurveto
            346 callsubr
            return
          </CharString>
          <CharString index="344">
            -58 callgsubr
            207 vlineto
            24 5 5 24 vhcurveto
            29 68 241 callgsubr
            69 hlineto
            return
          </CharString>
          <CharString index="345">
            -34 363 198 rmoveto
            -56 120 -87 -120 -128 hlineto
            184 428 rlineto
            -90 hlineto
            -180 -427 rlineto
            -75 214 -124 87 124 56 vlineto
            endchar
          </CharString>
          <CharString index="346">
            1 callgsubr
            -51 -89 callgsubr
            427 -39 callsubr
            51 hlineto
            24 return
          </CharString>
          <CharString index="347">
            -81 callsubr
            215 return
          </CharString>
          <CharString index="348">
            225 callgsubr
            -6 5 23 hvcurveto
            return
          </CharString>
          <CharString index="349">
            vlineto
            -37 callsubr
            return
          </CharString>
          <CharString index="350">
            24 callgsubr
            60 hlineto
            -1 -5 0 -5 return
          </CharString>
          <CharString index="351">
            -35 -89 callgsubr
            return
          </CharString>
          <CharString index="352">
            hlineto
            17 11 3 7 8 hvcurveto
            return
          </CharString>
          <CharString index="353">
            hlineto
            27 5 -5 -27 hvcurveto
            return
          </CharString>
          <CharString index="354">
            rlineto
            217 callgsubr
            return
          </CharString>
          <CharString index="355">
            328 callgsubr
            -23 vhcurveto
            return
          </CharString>
          <CharString index="356">
            -27 -11 -9 -26 vhcurveto
            -31 261 callgsubr
            -27 -27 -58 hvcurveto
            -187 vlineto
            234 callgsubr
            return
          </CharString>
          <CharString index="357">
            -27 -10 -9 -27 141 callgsubr
            return
          </CharString>
          <CharString index="358">
            -35 callsubr
            158 27 vlineto
            return
          </CharString>
          <CharString index="359">
            vlineto
            -19 -4 -5 -20 vhcurveto
            -19 -56 50 hlineto
            51 21 24 45 hvcurveto
            64 53 -175 79 return
          </CharString>
          <CharString index="360">
            -374 266 callgsubr
            return
          </CharString>
          <CharString index="361">
            rmoveto
            -69 callsubr
            -138 -93 callsubr
            return
          </CharString>
          <CharString index="362">
            hlineto
            184 callgsubr
            return
          </CharString>
          <CharString index="363">
            hlineto
            65 27 27 58 hvcurveto
            return
          </CharString>
          <CharString index="364">
            vlineto
            279 callsubr
            return
          </CharString>
          <CharString index="365">
            216 callgsubr
            494 callsubr
            -23 -6 5 25 hvcurveto
            131 -62 callsubr
            75 hlineto
            return
          </CharString>
          <CharString index="366">
            -20 callgsubr
            -139 -80 callgsubr
            158 26 vlineto
            65 447 callsubr
            return
          </CharString>
          <CharString index="367">
            -84 rmoveto
            -23 -9 -10 -24 vhcurveto
            -40 -70 57 hlineto
            65 36 32 64 hvcurveto
            41 -85 vlineto
            return
          </CharString>
          <CharString index="368">
            196 634 -196 hlineto
            236 -185 rmoveto
            196 185 -196 hlineto
            return
          </CharString>
          <CharString index="369">
            -308 vlineto
            -61 29 -28 67 vhcurveto
            112 hlineto
            return
          </CharString>
          <CharString index="370">
            -52 callgsubr
            29 return
          </CharString>
          <CharString index="371">
            -99 124 callgsubr
            return
          </CharString>
          <CharString index="372">
            vlineto
            -57 29 -31 return
          </CharString>
          <CharString index="373">
            -44 callsubr
            205 vlineto
            24 5 5 24 vhcurveto
            29 70 241 callgsubr
            return
          </CharString>
          <CharString index="374">
            158 73 373 callgsubr
            285 vlineto
            23 6 6 434 callsubr
            -273 389 callsubr
            return
          </CharString>
          <CharString index="375">
            27 -9 -22 12 -31 hhcurveto
            -36 402 callsubr
            -312 -36 callgsubr
            -39 90 669 return
          </CharString>
          <CharString index="376">
            169 callsubr
            -89 -196 hlineto
            return
          </CharString>
          <CharString index="377">
            vlineto
            -24 -8 -8 -24 vhcurveto
            -37 -80 callgsubr
            return
          </CharString>
          <CharString index="378">
            rmoveto
            197 callgsubr
            -41 -80 callgsubr
            return
          </CharString>
          <CharString index="379">
            hhcurveto
            63 400 callsubr
            91 556 return
          </CharString>
          <CharString index="380">
            vlineto
            31 -14 15 -25 2 vhcurveto
            3 vlineto
            25 2 14 16 return
          </CharString>
          <CharString index="381">
            vlineto
            -24 -6 -5 -22 355 callgsubr
            return
          </CharString>
          <CharString index="382">
            354 callsubr
            -64 return
          </CharString>
          <CharString index="383">
            373 callsubr
            -37 hlineto
            return
          </CharString>
          <CharString index="384">
            102 callsubr
            72 hlineto
            return
          </CharString>
          <CharString index="385">
            -31 -58 hvcurveto
            -311 vlineto
            return
          </CharString>
          <CharString index="386">
            57 407 callsubr
            return
          </CharString>
          <CharString index="387">
            -23 322 360 callsubr
            77 70 -422 -70 255 -74 -91 vlineto
            -94 callsubr
            -230 vlineto
            -45 16 -27 35 -11 vhcurveto
            return
          </CharString>
          <CharString index="388">
            -59 callgsubr
            105 -362 100 callsubr
          </CharString>
          <CharString index="389">
            29 hhcurveto
            63 334 callgsubr
          </CharString>
          <CharString index="390">
            rmoveto
            94 hlineto
            52 81 53 -81 rlineto
            93 hlineto
            -95 132 rlineto
            -101 hlineto
            endchar
          </CharString>
          <CharString index="391">
            -95 callsubr
            endchar
          </CharString>
          <CharString index="392">
            -28 31 -65 vhcurveto
            return
          </CharString>
          <CharString index="393">
            344 callsubr
            248 callsubr
            -45 -99 callgsubr
            155 -76 callsubr
            return
          </CharString>
          <CharString index="394">
            52 hlineto
            111 callsubr
            return
          </CharString>
          <CharString index="395">
            13 callsubr
            125 -90 -113 31 callsubr
            return
          </CharString>
          <CharString index="396">
            656 rmoveto
            71 75 -71 hlineto
            -30 102 rmoveto
            -65 312 callsubr
            -143 90 330 callgsubr
            6 4 24 vhcurveto
            42 68 hlineto
            endchar
          </CharString>
          <CharString index="397">
            hlineto
            -81 callgsubr
            134 return
          </CharString>
          <CharString index="398">
            235 178 41 callgsubr
            return
          </CharString>
          <CharString index="399">
            -28 67 vhcurveto
            88 -83 callgsubr
            return
          </CharString>
          <CharString index="400">
            234 callgsubr
            81 hlineto
            22 13 6 return
          </CharString>
          <CharString index="401">
            hlineto
            42 callsubr
            return
          </CharString>
          <CharString index="402">
            rmoveto
            -268 -68 268 hlineto
            return
          </CharString>
          <CharString index="403">
            6 callsubr
            hlineto
            endchar
          </CharString>
          <CharString index="404">
            -6 -3 -8 -12 vvcurveto
            return
          </CharString>
          <CharString index="405">
            128 callsubr
            104 hlineto
            return
          </CharString>
          <CharString index="406">
            74 callgsubr
            24 vhcurveto
            return
          </CharString>
          <CharString index="407">
            vlineto
            -58 27 -27 64 vhcurveto
            return
          </CharString>
          <CharString index="408">
            367 callsubr
            380 -8 callsubr
            return
          </CharString>
          <CharString index="409" raw="1">
            f8441de6 f7630a0b  
          </CharString>
          <CharString index="410">
            -556 -101 callsubr
          </CharString>
          <CharString index="411">
            454 callgsubr
            -24 -6 5 25 hvcurveto
            205 -39 callsubr
            -120 return
          </CharString>
          <CharString index="412">
            -24 -5 -91 callgsubr
            94 vlineto
            25 -56 callgsubr
            61 70 -61 -93 callsubr
            94 vlineto
            30 7 2 37 vhcurveto
            return
          </CharString>
          <CharString index="413">
            32 354 callgsubr
            -155 hlineto
            226 callsubr
            256 vlineto
            26 5 -6 -26 hvcurveto
            return
          </CharString>
          <CharString index="414">
            493 callgsubr
            282 vlineto
            24 5 5 24 184 callsubr
          </CharString>
          <CharString index="415">
            rlineto
            97 437 callgsubr
            100 callsubr
          </CharString>
          <CharString index="416">
            42 callsubr
            85 vlineto
            endchar
          </CharString>
          <CharString index="417">
            326 callgsubr
            39 -90 return
          </CharString>
          <CharString index="418">
            4 callgsubr
            -2 return
          </CharString>
          <CharString index="419">
            -27 -27 -57 hvcurveto
            return
          </CharString>
          <CharString index="420">
            343 callsubr
            68 hlineto
            -1 return
          </CharString>
          <CharString index="421">
            364 callsubr
            23 6 -5 -25 hvcurveto
            return
          </CharString>
          <CharString index="422">
            -52 callgsubr
            57 hlineto
            335 214 rmoveto
            -565 -70 403 195 callsubr
            return
          </CharString>
          <CharString index="423">
            rmoveto
            340 callsubr
            return
          </CharString>
          <CharString index="424">
            hlineto
            156 callgsubr
            -230 vlineto
            -61 29 -28 67 vhcurveto
            return
          </CharString>
          <CharString index="425">
            hlineto
            156 callgsubr
            108 callsubr
            return
          </CharString>
          <CharString index="426">
            456 callsubr
            -198 return
          </CharString>
          <CharString index="427">
            367 626 rmoveto
            -387 -70 387 hlineto
            return
          </CharString>
          <CharString index="428">
            347 626 rmoveto
            -367 -70 367 hlineto
            return
          </CharString>
          <CharString index="429">
            335 626 rmoveto
            -355 -70 355 hlineto
            return
          </CharString>
          <CharString index="430">
            487 callsubr
            245 return
          </CharString>
          <CharString index="431">
            hlineto
            372 callsubr
            return
          </CharString>
          <CharString index="432">
            hlineto
            -17 130 callsubr
            return
          </CharString>
          <CharString index="433">
            vlineto
            490 callgsubr
            return
          </CharString>
          <CharString index="434">
            vlineto
            177 callsubr
            return
          </CharString>
          <CharString index="435">
            -28 callgsubr
            23 hvcurveto
            return
          </CharString>
          <CharString index="436">
            25 -3 vhcurveto
            -2 return
          </CharString>
          <CharString index="437">
            57 callsubr
            -23 -6 5 24 hvcurveto
            181 return
          </CharString>
          <CharString index="438">
            538 320 callsubr
            230 399 callsubr
            -41 hlineto
            -23 return
          </CharString>
          <CharString index="439">
            -31 rmoveto
            -90 -488 90 337 hlineto
            50 20 24 43 vhcurveto
            36 78 -20 hlineto
            -43 -26 -29 -32 -10 hvcurveto
            endchar
          </CharString>
          <CharString index="440">
            hlineto
            15 10 2 6 423 callgsubr
          </CharString>
          <CharString index="441">
            52 callgsubr
            24 hvcurveto
            166 vlineto
            -30 callsubr
            -189 vlineto
            return
          </CharString>
          <CharString index="442">
            -161 383 callgsubr
            23 vhcurveto
            57 hlineto
            return
          </CharString>
          <CharString index="443">
            rmoveto
            -43 -26 -29 -32 -10 hvcurveto
            60 -90 -488 90 337 vlineto
            50 20 24 43 vhcurveto
            36 78 hlineto
            endchar
          </CharString>
          <CharString index="444">
            hlineto
            -32 callgsubr
            171 105 -362 100 callsubr
          </CharString>
          <CharString index="445">
            vvcurveto
            220 callsubr
          </CharString>
          <CharString index="446">
            vlineto
            62 160 callgsubr
            -62 294 callsubr
            return
          </CharString>
          <CharString index="447">
            -65 40 callgsubr
            6 5 22 vhcurveto
            return
          </CharString>
          <CharString index="448">
            414 rmoveto
            142 return
          </CharString>
          <CharString index="449">
            hlineto
            -26 276 callgsubr
            -26 callgsubr
            return
          </CharString>
          <CharString index="450">
            -75 callsubr
            350 -8 callsubr
            return
          </CharString>
          <CharString index="451">
            398 callgsubr
            -196 return
          </CharString>
          <CharString index="452" raw="1">
            fc19064e 0b  
          </CharString>
          <CharString index="453">
            -68 -212 rmoveto
            -69 callgsubr
            171 166 callgsubr
            18 -47 31 -62 vhcurveto
            return
          </CharString>
          <CharString index="454">
            5 24 vhcurveto
            71 hlineto
            358 388 callgsubr
            -106 131 hlineto
            376 callsubr
            return
          </CharString>
          <CharString index="455">
            143 171 rmoveto
            62 -29 28 -67 vhcurveto
            -32 -71 12 -95 callsubr
            -253 86 75 return
          </CharString>
          <CharString index="456">
            773 rmoveto
            -66 hlineto
            -64 312 callsubr
            -83 90 71 vlineto
            24 5 4 24 vhcurveto
            38 hlineto
            endchar
          </CharString>
          <CharString index="457">
            -103 rmoveto
            422 callgsubr
            -172 vlineto
            endchar
          </CharString>
          <CharString index="458">
            vlineto
            24 6 5 434 callsubr
            return
          </CharString>
          <CharString index="459">
            -7 29 hhcurveto
            -68 callsubr
            -89 90 return
          </CharString>
          <CharString index="460">
            -95 callsubr
            -64 43 callgsubr
            return
          </CharString>
          <CharString index="461">
            hlineto
            387 callsubr
            return
          </CharString>
          <CharString index="462">
            -65 callsubr
            31 hlineto
            return
          </CharString>
          <CharString index="463">
            -5 -24 hvcurveto
            -78 91 92 vlineto
            57 return
          </CharString>
          <CharString index="464">
            404 callsubr
            171 return
          </CharString>
          <CharString index="465">
            162 callgsubr
            vlineto
            return
          </CharString>
          <CharString index="466">
            -38 43 callgsubr
            return
          </CharString>
          <CharString index="467">
            412 rmoveto
            144 return
          </CharString>
          <CharString index="468">
            166 rlineto
            -114 return
          </CharString>
          <CharString index="469">
            30 -27 60 vhcurveto
            return
          </CharString>
          <CharString index="470">
            396 callgsubr
            228 hmoveto
            70 return
          </CharString>
          <CharString index="471">
            -158 rlineto
            98 437 callgsubr
            386 callsubr
            return
          </CharString>
          <CharString index="472">
            46 callsubr
            -41 246 callgsubr
            79 vlineto
            23 472 callsubr
            return
          </CharString>
          <CharString index="473">
            rmoveto
            -95 83 95 vlineto
            endchar
          </CharString>
          <CharString index="474">
            212 callgsubr
            107 166 rlineto
            -114 90 return
          </CharString>
          <CharString index="475">
            -61 30 -28 60 vhcurveto
            63 334 callgsubr
          </CharString>
          <CharString index="476">
            -35 callgsubr
            -30 -68 57 hlineto
            65 27 return
          </CharString>
          <CharString index="477">
            88 311 callgsubr
            return
          </CharString>
          <CharString index="478">
            26 5 488 callsubr
            return
          </CharString>
          <CharString index="479">
            -6 -6 -4 -11 -15 vvcurveto
            return
          </CharString>
          <CharString index="480">
            vlineto
            57 -29 27 -61 vhcurveto
            return
          </CharString>
          <CharString index="481">
            vlineto
            376 callsubr
            return
          </CharString>
          <CharString index="482">
            vhcurveto
            57 73 -29 hlineto
            -24 return
          </CharString>
          <CharString index="483">
            57 -27 30 -65 vhcurveto
            return
          </CharString>
          <CharString index="484">
            vlineto
            -31 15 -15 return
          </CharString>
          <CharString index="485">
            -25 -7 393 callsubr
            return
          </CharString>
          <CharString index="486">
            -97 hlineto
            -129 -314 127 -312 rlineto
            98 hlineto
            -131 312 rlineto
            endchar
          </CharString>
          <CharString index="487" raw="1">
            711df780 fbe70670 0b 
          </CharString>
          <CharString index="488">
            -78 callgsubr
            85 return
          </CharString>
          <CharString index="489">
            -174 -304 hlineto
            25 callgsubr
            304 return
          </CharString>
          <CharString index="490">
            hlineto
            -39 70 rlineto
            47 -27 -21 17 -63 hhcurveto
            -41 85 hlineto
            13 -3 8 -5 5 vhcurveto
            return
          </CharString>
          <CharString index="491">
            rmoveto
            66 -91 37 -50 32 -39 27 -24 rlinecurve
            89 hlineto
            -143 204 rlineto
            endchar
          </CharString>
          <CharString index="492">
            -189 vlineto
            -61 29 -28 67 vhcurveto
            78 hlineto
            67 return
          </CharString>
          <CharString index="493">
            90 380 vlineto
            437 callsubr
            return
          </CharString>
          <CharString index="494">
            376 callsubr
            -89 hlineto
            return
          </CharString>
          <CharString index="495">
            -99 196 callsubr
            return
          </CharString>
          <CharString index="496">
            327 callsubr
            33 return
          </CharString>
          <CharString index="497">
            40 vlineto
            65 27 30 57 hvcurveto
            return
          </CharString>
          <CharString index="498">
            -25 -8 -9 -26 vhcurveto
            return
          </CharString>
          <CharString index="499">
            276 callsubr
            -60 312 callsubr
            -58 60 43 vlineto
            24 return
          </CharString>
          <CharString index="500">
            189 callgsubr
            205 -39 callsubr
            return
          </CharString>
          <CharString index="501">
            vlineto
            163 callgsubr
            return
          </CharString>
          <CharString index="502">
            rmoveto
            165 71 70 -626 -70 464 -95 -91 vlineto
            134 callgsubr
            return
          </CharString>
          <CharString index="503">
            339 callsubr
            85 vlineto
            endchar
          </CharString>
          <CharString index="504">
            32 hlineto
            69 198 rlineto
            65 -101 vlineto
            endchar
          </CharString>
          <CharString index="505">
            -89 callgsubr
            103 vlineto
            return
          </CharString>
          <CharString index="506">
            328 callgsubr
            -24 vhcurveto
            return
          </CharString>
          <CharString index="507">
            245 callsubr
            -88 return
          </CharString>
          <CharString index="508">
            6 15 9 hvcurveto
            -14 16 24 -7 return
          </CharString>
          <CharString index="509">
            hlineto
            -62 -28 -31 -58 hvcurveto
            return
          </CharString>
          <CharString index="510">
            hlineto
            -25 408 callgsubr
            return
          </CharString>
          <CharString index="511">
            hlineto
            67 29 27 62 hvcurveto
            return
          </CharString>
          <CharString index="512">
            vhcurveto
            -41 hlineto
            -24 -6 5 return
          </CharString>
          <CharString index="513">
            vlineto
            23 5 6 24 vhcurveto
            return
          </CharString>
          <CharString index="514">
            -29 31 -64 vhcurveto
            return
          </CharString>
          <CharString index="515">
            469 callgsubr
            -3 -15 14 -31 hhcurveto
            return
          </CharString>
          <CharString index="516">
            rmoveto
            108 callgsubr
            574 -90 return
          </CharString>
          <CharString index="517">
            vlineto
            -61 50 callsubr
            194 66 -171 -80 callgsubr
            return
          </CharString>
          <CharString index="518">
            -162 183 626 rmoveto
            -163 -73 72 -553 91 hlineto
            endchar
          </CharString>
          <CharString index="519">
            371 callgsubr
            -72 return
          </CharString>
          <CharString index="520">
            -52 callgsubr
            71 hlineto
            -367 return
          </CharString>
          <CharString index="521">
            -50 callsubr
            245 102 70 -277 vlineto
            return
          </CharString>
          <CharString index="522">
            vhcurveto
            34 123 callsubr
            -119 return
          </CharString>
          <CharString index="523">
            101 123 -101 hlineto
            return
          </CharString>
          <CharString index="524">
            rmoveto
            142 89 70 return
          </CharString>
          <CharString index="525">
            vhcurveto
            -39 hlineto
            -60 return
          </CharString>
          <CharString index="526">
            vlineto
            -61 29 -28 67 vhcurveto
            55 hlineto
            18 -60 callsubr
            -89 90 return
          </CharString>
          <CharString index="527">
            246 callsubr
            -94 -72 -70 72 -33 callgsubr
            return
          </CharString>
          <CharString index="528">
            -84 hlineto
            9 callgsubr
            -30 hhcurveto
            return
          </CharString>
          <CharString index="529">
            -53 callgsubr
            245 83 -412 -101 callsubr
          </CharString>
          <CharString index="530">
            -52 callgsubr
            endchar
          </CharString>
          <CharString index="531">
            -52 callgsubr
            84 137 84 hlineto
            167 callsubr
            return
          </CharString>
          <CharString index="532">
            57 -27 30 -64 vhcurveto
            -117 -70 89 42 callgsubr
            return
          </CharString>
          <CharString index="533">
            -70 72 -389 hlineto
            293 callsubr
            return
          </CharString>
          <CharString index="534">
            25 callgsubr
            264 -90 return
          </CharString>
          <CharString index="535">
            -91 callgsubr
            149 vlineto
            33 8 0 47 -2 vhcurveto
            -7 1 rlineto
            return
          </CharString>
          <CharString index="536">
            -62 callsubr
            35 68 -60 405 callgsubr
            return
          </CharString>
          <CharString index="537">
            225 callgsubr
            -5 5 23 hvcurveto
            return
          </CharString>
          <CharString index="538">
            276 callsubr
            -61 return
          </CharString>
          <CharString index="539">
            -55 callsubr
            329 callgsubr
            return
          </CharString>
          <CharString index="540">
            160 hlineto
            17 -60 callsubr
            return
          </CharString>
          <CharString index="541">
            24 vhcurveto
            35 hlineto
            23 10 -9 -26 hvcurveto
            return
          </CharString>
          <CharString index="542">
            5 26 hvcurveto
            139 61 vlineto
            return
          </CharString>
          <CharString index="543">
            334 341 callsubr
            return
          </CharString>
          <CharString index="544">
            22 callsubr
            38 hlineto
            return
          </CharString>
          <CharString index="545">
            61 vlineto
            63 29 27 59 hvcurveto
            return
          </CharString>
          <CharString index="546">
            27 132 callsubr
            return
          </CharString>
          <CharString index="547">
            vlineto
            57 285 callsubr
            return
          </CharString>
          <CharString index="548">
            vlineto
            -61 32 -28 65 vhcurveto
            return
          </CharString>
          <CharString index="549">
            vlineto
            491 callgsubr
            return
          </CharString>
          <CharString index="550">
            vlineto
            -23 9 callsubr
            return
          </CharString>
          <CharString index="551">
            vlineto
            -23 -6 -5 -23 vhcurveto
            return
          </CharString>
          <CharString index="552">
            -198 rlineto
            -11 return
          </CharString>
          <CharString index="553">
            -90 callgsubr
            205 return
          </CharString>
          <CharString index="554">
            26 callgsubr
            102 170 callsubr
            return
          </CharString>
          <CharString index="555">
            -55 28 -28 66 vhcurveto
            120 hlineto
            66 28 28 55 hvcurveto
            56 return
          </CharString>
          <CharString index="556">
            vlineto
            -94 callsubr
            -126 vlineto
            -61 29 -28 67 vhcurveto
            return
          </CharString>
          <CharString index="557">
            -8 -7 -24 vhcurveto
            return
          </CharString>
          <CharString index="558" raw="1">
            fc19074e 0b  
          </CharString>
          <CharString index="559">
            hlineto
            40 482 callsubr
            return
          </CharString>
          <CharString index="560">
            vlineto
            -27 -10 -9 -27 vhcurveto
            -31 -93 callsubr
            return
          </CharString>
          <CharString index="561">
            177 rmoveto
            14 11 2 3 10 hvcurveto
            -112 vlineto
            -23 return
          </CharString>
          <CharString index="562">
            vlineto
            -28 callsubr
            93 207 callsubr
            return
          </CharString>
          <CharString index="563">
            85 callsubr
            23 return
          </CharString>
          <CharString index="564">
            vlineto
            -24 -6 -5 -22 50 callgsubr
            return
          </CharString>
          <CharString index="565">
            -39 callsubr
            51 -95 callsubr
            return
          </CharString>
          <CharString index="566">
            -82 48 259 rmoveto
            218 70 -218 hlineto
            endchar
          </CharString>
          <CharString index="567" raw="1">
            fbdb066f 0a0b  
          </CharString>
          <CharString index="568">
            -351 27 callgsubr
            return
          </CharString>
          <CharString index="569">
            -93 callsubr
            177 return
          </CharString>
          <CharString index="570">
            -210 27 callgsubr
            return
          </CharString>
          <CharString index="571">
            -58 callsubr
            70 vlineto
            endchar
          </CharString>
          <CharString index="572">
            -27 -30 -57 hvcurveto
            -61 return
          </CharString>
          <CharString index="573">
            174 rmoveto
            70 return
          </CharString>
          <CharString index="574">
            62 hlineto
            17 12 -71 callgsubr
            -89 90 556 return
          </CharString>
          <CharString index="575">
            197 callgsubr
            -30 -99 callgsubr
            return
          </CharString>
          <CharString index="576">
            5 24 vhcurveto
            29 68 -57 27 callgsubr
            return
          </CharString>
          <CharString index="577">
            -130 161 -90 -161 -130 -71 130 return
          </CharString>
          <CharString index="578">
            156 callgsubr
            440 callgsubr
            return
          </CharString>
          <CharString index="579">
            -56 callgsubr
            71 hlineto
            return
          </CharString>
          <CharString index="580">
            vlineto
            124 callsubr
            return
          </CharString>
          <CharString index="581">
            vlineto
            -58 479 callsubr
            return
          </CharString>
          <CharString index="582" raw="1">
            1e6c6f1d 0b  
          </CharString>
          <CharString index="583">
            hlineto
            -22 362 callgsubr
            return
          </CharString>
          <CharString index="584">
            hlineto
            24 5 -5 -25 hvcurveto
            return
          </CharString>
          <CharString index="585">
            178 rmoveto
            -25 -6 -5 return
          </CharString>
          <CharString index="586">
            29 -31 64 vhcurveto
            return
          </CharString>
          <CharString index="587">
            433 callsubr
            -89 90 return
          </CharString>
          <CharString index="588">
            15 -16 12 callsubr
            return
          </CharString>
          <CharString index="589">
            3 -5 -28 hvcurveto
            -65 -35 callgsubr
            return
          </CharString>
          <CharString index="590">
            -105 345 callgsubr
            return
          </CharString>
          <CharString index="591">
            -70 267 -74 -103 vlineto
            -94 callsubr
            return
          </CharString>
          <CharString index="592">
            -93 callsubr
            378 vlineto
            endchar
          </CharString>
          <CharString index="593" raw="1">
            540afb51 070b  
          </CharString>
          <CharString index="594">
            75 -83 callgsubr
            return
          </CharString>
          <CharString index="595">
            -6 -26 hvcurveto
            -144 vlineto
            -26 return
          </CharString>
          <CharString index="596">
            6 15 10 hvcurveto
            -14 return
          </CharString>
          <CharString index="597">
            -91 vlineto
            -24 -8 -8 return
          </CharString>
          <CharString index="598">
            vhcurveto
            74 hlineto
            67 return
          </CharString>
          <CharString index="599" raw="1">
            f84c1dcc 1ec4d40b  
          </CharString>
          <CharString index="600">
            vhcurveto
            172 -2 rmoveto
            -626 89 556 return
          </CharString>
          <CharString index="601">
            -354 rmoveto
            197 callgsubr
            -45 hlineto
            return
          </CharString>
          <CharString index="602">
            504 921 626 rmoveto
            -941 -70 return
          </CharString>
          <CharString index="603">
            -172 399 callsubr
            return
          </CharString>
          <CharString index="604">
            rmoveto
            -75 71 75 vlineto
            endchar
          </CharString>
          <CharString index="605">
            rmoveto
            -94 101 94 vlineto
            endchar
          </CharString>
          <CharString index="606">
            229 rmoveto
            -70 return
          </CharString>
          <CharString index="607">
            70 -583 -70 return
          </CharString>
          <CharString index="608">
            hvcurveto
            -13 15 22 return
          </CharString>
          <CharString index="609">
            111 hlineto
            65 return
          </CharString>
          <CharString index="610">
            -78 146 rlineto
            return
          </CharString>
        <CharString name=".notdef">
          113 0 vmoveto
          502 701 -502 hlineto
          51 -49 rmoveto
          400 -603 -400 hlineto
          200 253 rmoveto
          105 -209 rlineto
          60 hlineto
          -135 254 135 261 rlineto
          -60 hlineto
          -100 -206 rlineto
          -4 hlineto
          -105 206 rlineto
          -60 hlineto
          134 -255 -134 -260 rlineto
          60 hlineto
          100 209 rlineto
          endchar
        </CharString>
        <CharString name="A">
          -12 136 218 rmoveto
          -49 callsubr
        </CharString>
        <CharString name="AE">
          182 181 221 rmoveto
          105 293 rlineto
          -293 vlineto
          89 -148 rmoveto
          214 144 73 -144 193 174 73 -306 vlineto
          -232 -626 rlineto
          91 hlineto
          53 149 rlineto
          131 -149 270 73 hlineto
          endchar
        </CharString>
        <CharString name="Aacute">
          -12 333 789 76 callsubr
          -92 -439 rmoveto
          -49 callsubr
        </CharString>
        <CharString name="Abreve">
          -12 239 657 rmoveto
          65 29 31 58 hvcurveto
          43 -84 105 callsubr
          -2 -439 rmoveto
          -49 callsubr
        </CharString>
        <CharString name="Acircumflex">
          -12 188 738 63 callsubr
          -439 vmoveto
          -49 callsubr
        </CharString>
        <CharString name="Adieresis">
          -12 334 751 183 callsubr
          -9 -439 rmoveto
          -49 callsubr
        </CharString>
        <CharString name="Agrave">
          -12 220 657 164 callsubr
          -7 -439 rmoveto
          -49 callsubr
        </CharString>
        <CharString name="Amacron">
          -12 322 726 295 callsubr
          -186 -440 rmoveto
          -49 callsubr
        </CharString>
        <CharString name="Aogonek">
          -12 136 218 rmoveto
          52 330 57 -330 rlineto
          65 -380 rmoveto
          108 callgsubr
          97 -2 hlineto
          -117 615 rlineto
          -131 hlineto
          -111 -626 rlineto
          90 hlineto
          23 145 rlineto
          132 hlineto
          25 -145 rlineto
          20 -23 -8 hlineto
          412 callgsubr
        </CharString>
        <CharString name="Aring">
          -12 146 740 16 callgsubr
          -20 -440 rmoveto
          -49 callsubr
        </CharString>
        <CharString name="Atilde">
          -12 123 673 rmoveto
          216 callsubr
          10 callsubr
          vlineto
          13 -440 rmoveto
          -49 callsubr
        </CharString>
        <CharString name="B">
          12 52 626 rmoveto
          -626 217 vlineto
          166 callsubr
          171 vlineto
          33 -13 18 -27 7 vhcurveto
          27 6 13 22 34 vvcurveto
          159 vlineto
          57 -29 31 -65 vhcurveto
          3 -526 46 callsubr
          -100 212 100 -95 callsubr
          129 vmoveto
          -16 callgsubr
          -100 201 100 284 callsubr
        </CharString>
        <CharString name="C">
          -20 340 430 -7 callsubr
        </CharString>
        <CharString name="CR">
          -397 endchar
        </CharString>
        <CharString name="Cacute">
          -20 336 789 76 callsubr
          109 -227 -7 callsubr
        </CharString>
        <CharString name="Ccaron">
          -20 244 657 18 callsubr
          197 -227 -7 callsubr
        </CharString>
        <CharString name="Ccedilla">
          -20 153 260 callsubr
          187 480 -7 callsubr
        </CharString>
        <CharString name="D">
          15 274 100 235 callsubr
        </CharString>
        <CharString name="Dcaron">
          15 254 657 18 callsubr
          121 -557 235 callsubr
        </CharString>
        <CharString name="Dcroat">
          17 274 102 487 callgsubr
          207 75 71 -75 202 99 -95 callsubr
          -220 102 rmoveto
          -275 -51 -71 51 -280 214 callgsubr
        </CharString>
        <CharString name="E">
          -54 143 73 rmoveto
          214 73 callsubr
          vlineto
          endchar
        </CharString>
        <CharString name="Eacute">
          -54 325 789 76 callsubr
          -77 -370 rmoveto
          73 callsubr
          -181 hlineto
          endchar
        </CharString>
        <CharString name="Ecaron">
          -54 235 657 18 callsubr
          9 -370 rmoveto
          73 callsubr
          -181 hlineto
          endchar
        </CharString>
        <CharString name="Ecircumflex">
          -54 186 738 63 callsubr
          9 -370 rmoveto
          73 callsubr
          -181 hlineto
          endchar
        </CharString>
        <CharString name="Edieresis">
          -43 139 751 rmoveto
          -102 -94 102 hlineto
          4 -370 rmoveto
          73 callsubr
          -181 hlineto
          84 678 498 callsubr
        </CharString>
        <CharString name="Edotaccent">
          -54 246 753 rmoveto
          -107 -96 107 hlineto
          -103 -584 rmoveto
          214 73 callsubr
          vlineto
          endchar
        </CharString>
        <CharString name="Egrave">
          -54 223 657 164 callsubr
          -3 -584 rmoveto
          214 73 callsubr
          vlineto
          endchar
        </CharString>
        <CharString name="Emacron">
          -54 317 739 295 callsubr
          -174 -598 rmoveto
          214 73 callsubr
          vlineto
          endchar
        </CharString>
        <CharString name="Eogonek">
          -54 261 -162 rmoveto
          108 callgsubr
          159 -181 214 144 73 -144 193 174 73 -265 -626 201 -23 -8 hlineto
          412 callgsubr
        </CharString>
        <CharString name="Eth">
          15 274 100 487 callgsubr
          209 75 71 -75 204 99 -95 callsubr
          -220 100 rmoveto
          -275 -51 -71 51 -280 214 callgsubr
        </CharString>
        <CharString name="Euro">
          2 362 430 rmoveto
          108 257 callsubr
          -106 hlineto
          -65 213 callgsubr
          -133 -46 -66 46 -51 -46 -67 46 -133 vlineto
          -58 29 -31 65 vhcurveto
          106 hlineto
          64 29 31 58 hvcurveto
          106 -91 -95 43 callgsubr
          -51 -17 callsubr
          122 87 67 -87 51 87 66 -87 121 -62 callsubr
          51 -95 callsubr
          -96 vlineto
          endchar
        </CharString>
        <CharString name="F">
          -65 325 553 rmoveto
          73 -273 -626 91 276 144 71 -144 206 vlineto
          endchar
        </CharString>
        <CharString name="G">
          -15 340 443 37 callgsubr
        </CharString>
        <CharString name="Gbreve">
          -15 244 657 rmoveto
          65 29 31 58 hvcurveto
          43 -84 105 callsubr
          197 -214 37 callgsubr
        </CharString>
        <CharString name="H">
          20 275 626 rmoveto
          -278 -133 278 -90 -626 90 275 133 -275 90 626 vlineto
          endchar
        </CharString>
        <CharString name="I">
          205 callsubr
          endchar
        </CharString>
        <CharString name="Iacute">
          205 callsubr
          -81 31 218 callsubr
          endchar
        </CharString>
        <CharString name="Icircumflex">
          205 callsubr
          -190 31 283 callsubr
        </CharString>
        <CharString name="Idieresis">
          -187 -42 657 272 callgsubr
          -88 -125 rmoveto
          -626 90 626 vlineto
          endchar
        </CharString>
        <CharString name="Idotaccent">
          205 callsubr
          -99 44 rmoveto
          107 96 -107 hlineto
          endchar
        </CharString>
        <CharString name="Igrave">
          205 callsubr
          -89 163 397 callgsubr
        </CharString>
        <CharString name="Imacron">
          205 callsubr
          -180 45 387 callgsubr
        </CharString>
        <CharString name="Iogonek">
          -187 87 -162 rmoveto
          108 callgsubr
          712 -90 -626 19 -23 -8 hlineto
          412 callgsubr
        </CharString>
        <CharString name="J">
          -63 14 206 rmoveto
          -118 171 callgsubr
          85 hlineto
          172 callgsubr
          538 -91 -524 43 callgsubr
          -29 -89 callgsubr
          104 vlineto
          endchar
        </CharString>
        <CharString name="K">
          -13 52 hmoveto
          90 626 -90 hlineto
          322 hmoveto
          379 callsubr
        </CharString>
        <CharString name="L">
          -96 142 73 309 callgsubr
        </CharString>
        <CharString name="Lacute">
          -96 241 789 76 callsubr
          6 -584 309 callgsubr
        </CharString>
        <CharString name="Lcaron">
          -96 241 794 rmoveto
          -93 hlineto
          -53 -81 -52 81 rlineto
          -94 hlineto
          96 -132 rlineto
          101 hlineto
          -4 -589 309 callgsubr
        </CharString>
        <CharString name="Lslash">
          -88 144 73 rmoveto
          222 vlineto
          100 47 rlineto
          70 vlineto
          -100 -47 rlineto
          261 -90 -303 vlineto
          -76 -35 rlineto
          -71 vlineto
          76 36 rlineto
          -253 245 73 vlineto
          endchar
        </CharString>
        <CharString name="M">
          119 299 136 rmoveto
          86 322 rlineto
          -458 79 626 -99 vlineto
          -107 -388 -107 388 rlineto
          -99 -626 79 457 hlineto
          86 -321 rlineto
          endchar
        </CharString>
        <CharString name="N">
          13 275 626 89 callgsubr
          endchar
        </CharString>
        <CharString name="NULL">
          -397 endchar
        </CharString>
        <CharString name="Nacute">
          13 167 657 218 callsubr
          26 -163 89 callgsubr
          endchar
        </CharString>
        <CharString name="Ncaron">
          13 157 657 rmoveto
          101 hlineto
          95 132 rlineto
          -93 hlineto
          -53 -81 -52 81 rlineto
          -94 hlineto
          214 -163 89 callgsubr
          endchar
        </CharString>
        <CharString name="Ntilde">
          13 275 626 89 callgsubr
          -97 32 rmoveto
          10 callsubr
          15 vlineto
          216 callsubr
          endchar
        </CharString>
        <CharString name="O">
          -4 255 102 -80 callsubr
        </CharString>
        <CharString name="OE">
          167 261 100 46 callsubr
          -58 -17 callsubr
          426 -62 callsubr
          58 -95 callsubr
          95 -455 rmoveto
          217 144 71 -144 196 174 71 -247 -19 vlineto
          12 -14 -19 7 -27 hhcurveto
          -77 hlineto
          -64 80 callsubr
          64 vhcurveto
          78 hlineto
          27 19 7 12 13 hvcurveto
          -19 254 71 vlineto
          endchar
        </CharString>
        <CharString name="Oacute">
          -4 334 789 76 callsubr
          26 -555 -80 callsubr
        </CharString>
        <CharString name="Ocircumflex">
          -4 195 738 63 callsubr
          112 -555 -80 callsubr
        </CharString>
        <CharString name="Odieresis">
          -8 342 751 183 callsubr
          102 -555 -80 callsubr
        </CharString>
        <CharString name="Ograve">
          -4 225 657 164 callsubr
          107 -555 -80 callsubr
        </CharString>
        <CharString name="Ohungarumlaut">
          -8 288 657 152 callgsubr
          86 -555 -80 callsubr
        </CharString>
        <CharString name="Omacron">
          -4 330 726 295 callsubr
          -75 -556 -80 callsubr
        </CharString>
        <CharString name="Oslash">
          4 262 98 rmoveto
          -24 -6 -6 -25 vhcurveto
          -62 hlineto
          -18 -7 3 10 -3 hvcurveto
          121 324 rlineto
          -123 124 rmoveto
          23 5 6 25 vhcurveto
          62 hlineto
          19 8 -3 -12 3 hvcurveto
          -122 -325 rlineto
          213 428 rmoveto
          -53 hlineto
          -9 -24 rlineto
          3 -10 -11 1 -13 hhcurveto
          -111 hlineto
          -65 97 callsubr
          -25 6 -20 11 -14 vhcurveto
          -18 -49 rlineto
          53 hlineto
          9 23 rlineto
          -2 10 11 -1 12 hhcurveto
          502 callsubr
          28 31 57 hvcurveto
          450 vlineto
          24 -5 20 -11 14 vhcurveto
          endchar
        </CharString>
        <CharString name="Otilde">
          -4 133 673 rmoveto
          216 callsubr
          10 callsubr
          vlineto
          122 -556 -80 callsubr
        </CharString>
        <CharString name="P">
          -19 260 344 rmoveto
          -24 -6 -6 -24 vhcurveto
          -88 239 88 -95 callsubr
          -208 102 rmoveto
          -626 90 242 115 vlineto
          65 28 30 58 hvcurveto
          208 440 callsubr
          endchar
        </CharString>
        <CharString name="Q">
          -4 138 524 479 callgsubr
          58 -95 callsubr
          -422 43 callgsubr
          -58 -17 callsubr
          222 -193 rmoveto
          -71 95 rlineto
          39 11 17 28 45 vvcurveto
          450 440 callsubr
          -111 hlineto
          -65 80 callsubr
          65 vhcurveto
          57 hlineto
          66 -91 rlineto
          endchar
        </CharString>
        <CharString name="R">
          -1 142 553 67 callgsubr
        </CharString>
        <CharString name="Racute">
          -1 336 789 76 callsubr
          -89 -104 67 callgsubr
        </CharString>
        <CharString name="Rcaron">
          -1 247 657 18 callsubr
          -4 -104 67 callgsubr
        </CharString>
        <CharString name="S">
          -36 232 102 -68 callgsubr
        </CharString>
        <CharString name="Sacute">
          -36 142 657 218 callsubr
          8 -687 -68 callgsubr
        </CharString>
        <CharString name="Scaron">
          -36 131 657 rmoveto
          101 hlineto
          95 132 rlineto
          -93 hlineto
          -53 -81 -52 81 rlineto
          -94 hlineto
          197 -687 -68 callgsubr
        </CharString>
        <CharString name="T">
          -87 305 626 rmoveto
          -300 -73 105 -553 90 553 105 hlineto
          endchar
        </CharString>
        <CharString name="Tcaron">
          -87 206 657 18 callsubr
          200 -31 rmoveto
          -300 -73 105 -553 90 553 105 hlineto
          endchar
        </CharString>
        <CharString name="Thorn">
          -12 259 224 46 callsubr
          -86 236 86 -95 callsubr
          -116 101 rmoveto
          123 -90 -626 90 123 113 vlineto
          65 28 31 57 hvcurveto
          204 440 callsubr
          endchar
        </CharString>
        <CharString name="U">
          0 257 626 -27 callgsubr
        </CharString>
        <CharString name="Uacute">
          0 340 789 76 callsubr
          22 -31 -27 callgsubr
        </CharString>
        <CharString name="Ucircumflex">
          0 198 738 63 callsubr
          111 -31 -27 callgsubr
        </CharString>
        <CharString name="Udieresis">
          0 344 751 183 callsubr
          102 -31 -27 callgsubr
        </CharString>
        <CharString name="Ugrave">
          0 237 657 164 callsubr
          97 -31 -27 callgsubr
        </CharString>
        <CharString name="Uhungarumlaut">
          -4 286 657 152 callgsubr
          90 -555 rmoveto
          -24 -5 -5 -25 vhcurveto
          -57 -89 callgsubr
          524 -91 -538 247 callgsubr
          111 hlineto
          166 callsubr
          538 -91 vlineto
          endchar
        </CharString>
        <CharString name="Umacron">
          0 333 726 295 callsubr
          -76 -32 -27 callgsubr
        </CharString>
        <CharString name="Uogonek">
          0 257 626 rmoveto
          -524 vlineto
          -24 -5 -5 -25 vhcurveto
          -57 -89 callgsubr
          524 -91 -538 247 callgsubr
          28 -23 -8 hlineto
          90 callgsubr
          -81 hlineto
          108 callgsubr
          86 12 hlineto
          166 callsubr
          538 vlineto
          endchar
        </CharString>
        <CharString name="Uring">
          0 155 740 16 callgsubr
          92 -32 -27 callgsubr
        </CharString>
        <CharString name="V">
          -33 266 626 rmoveto
          -85 -543 -83 543 rlineto
          -93 hlineto
          113 -626 rlineto
          128 hlineto
          113 626 rlineto
          endchar
        </CharString>
        <CharString name="W">
          212 508 626 rmoveto
          -73 -544 -81 544 rlineto
          -100 hlineto
          -81 -544 -70 544 rlineto
          -93 hlineto
          100 -626 rlineto
          125 hlineto
          69 470 70 -470 rlineto
          125 hlineto
          100 626 rlineto
          endchar
        </CharString>
        <CharString name="X">
          -24 235 320 rmoveto
          121 306 rlineto
          -98 hlineto
          -73 -225 -72 225 rlineto
          -100 hlineto
          123 -306 -132 -320 rlineto
          97 hlineto
          84 238 84 -238 rlineto
          100 hlineto
          endchar
        </CharString>
        <CharString name="Y">
          -36 357 626 338 callgsubr
        </CharString>
        <CharString name="Yacute">
          -36 325 789 76 callsubr
          137 -31 338 callgsubr
        </CharString>
        <CharString name="Ydieresis">
          -40 327 755 183 callsubr
          219 -35 338 callgsubr
        </CharString>
        <CharString name="Z">
          -84 305 627 rmoveto
          -286 -73 178 callsubr
          endchar
        </CharString>
        <CharString name="Zacute">
          -84 309 789 76 callsubr
          -185 -103 rmoveto
          178 callsubr
          73 -286 vlineto
          endchar
        </CharString>
        <CharString name="Zcaron">
          -84 213 657 18 callsubr
          -93 -103 rmoveto
          178 callsubr
          73 -286 vlineto
          endchar
        </CharString>
        <CharString name="Zdotaccent">
          -84 218 753 rmoveto
          -107 -96 107 hlineto
          87 -30 rmoveto
          -286 -73 178 callsubr
          endchar
        </CharString>
        <CharString name="a">
          -37 158 73 -57 callsubr
          -39 90 488 vlineto
          endchar
        </CharString>
        <CharString name="aacute">
          -37 328 651 76 callsubr
          -65 -446 -12 callsubr
          endchar
        </CharString>
        <CharString name="abreve">
          -37 158 73 -12 callsubr
          17 163 rmoveto
          105 callsubr
          101 hlineto
          65 29 31 58 hvcurveto
          43 vlineto
          endchar
        </CharString>
        <CharString name="acircumflex">
          -37 182 600 63 callsubr
          28 -446 -12 callsubr
          endchar
        </CharString>
        <CharString name="acute">
          24 118 519 218 callsubr
          endchar
        </CharString>
        <CharString name="adieresis">
          -37 135 635 rmoveto
          -102 -94 102 hlineto
          23 -468 -12 callsubr
          -3 147 498 callsubr
        </CharString>
        <CharString name="ae">
          160 163 73 373 callgsubr
          66 vlineto
          98 39 rlineto
          -104 vlineto
          -23 -2 -10 -7 -21 hhcurveto
          199 343 rmoveto
          116 callsubr
          -104 -106 104 248 callgsubr
          -201 rmoveto
          5 10 179 vlineto
          58 407 callsubr
          -78 hlineto
          381 callgsubr
          -88 90 75 -39 callsubr
          35 hlineto
          21 10 -8 -22 2 hvcurveto
          -106 vlineto
          -188 -77 rlineto
          -114 214 callsubr
          vlineto
          endchar
        </CharString>
        <CharString name="agrave">
          -37 245 519 164 callsubr
          -10 -446 -57 callsubr
          -39 90 488 vlineto
          endchar
        </CharString>
        <CharString name="amacron">
          -37 310 619 295 callsubr
          -152 -478 -57 callsubr
          -39 90 488 vlineto
          endchar
        </CharString>
        <CharString name="ampersand">
          64 156 71 373 callgsubr
          77 vlineto
          32 9 11 21 14 vhcurveto
          24 16 149 -179 rlineto
          -178 456 479 callgsubr
          46 -95 callsubr
          -82 vlineto
          -41 -18 -17 -39 -26 vhcurveto
          -6 -5 rlineto
          -23 27 -19 25 28 vvcurveto
          363 -471 rmoveto
          -83 101 rlineto
          1 7 1 7 8 vvcurveto
          142 -73 -77 vlineto
          -115 141 23 15 rlineto
          50 32 26 32 72 vvcurveto
          93 vlineto
          57 -28 31 -64 vhcurveto
          -97 hlineto
          -65 213 callgsubr
          -96 vlineto
          -48 32 -39 36 -45 vhcurveto
          -30 -22 rlineto
          -46 -29 -15 -22 -45 vvcurveto
          -104 171 callgsubr
          208 hlineto
          17 15 2 5 12 hvcurveto
          35 -42 rlineto
          endchar
        </CharString>
        <CharString name="aogonek">
          -37 158 73 -48 callgsubr
          60 -235 409 callsubr
          -39 hlineto
          61 callsubr
          19 -23 -8 vlineto
          412 callgsubr
        </CharString>
        <CharString name="approxequal">
          94 326 375 rmoveto
          35 hlineto
          61 24 31 50 hvcurveto
          61 -84 -41 vlineto
          -23 -3 -12 483 callgsubr
          -29 -52 hvcurveto
          -61 83 42 vlineto
          22 5 12 24 vhcurveto
          66 12 -77 90 hhcurveto
          -175 vmoveto
          35 hlineto
          61 24 30 51 hvcurveto
          61 -84 -42 vlineto
          -23 -3 -11 483 callgsubr
          -30 -51 hvcurveto
          -61 83 42 vlineto
          21 5 13 24 vhcurveto
          66 12 -77 90 hhcurveto
          endchar
        </CharString>
        <CharString name="aring">
          -37 141 610 16 callgsubr
          7 -455 -57 callsubr
          -39 90 488 vlineto
          endchar
        </CharString>
        <CharString name="asciicircum">
          101 187 671 rmoveto
          -132 -354 rlineto
          94 hlineto
          95 270 96 -270 rlineto
          94 hlineto
          -133 354 rlineto
          endchar
        </CharString>
        <CharString name="asciitilde">
          127 344 213 rmoveto
          34 hlineto
          61 24 31 51 hvcurveto
          65 -83 -46 vlineto
          -23 -3 -11 -24 vhcurveto
          -70 -18 81 -83 hhcurveto
          -37 hlineto
          -60 -24 -30 -51 hvcurveto
          -66 83 47 vlineto
          21 5 12 25 vhcurveto
          66 14 -81 90 hhcurveto
          endchar
        </CharString>
        <CharString name="asterisk">
          -77 305 493 rmoveto
          -24 72 -33 -11 -24 -7 -19 -9 -14 -9 rlinecurve
          4 16 3 20 25 vvcurveto
          36 -75 -36 vlineto
          -25 3 -21 4 -16 vhcurveto
          -14 9 -19 9 -24 8 -34 11 rcurveline
          -23 -71 34 -11 24 -8 20 -4 17 -1 rlinecurve
          -13 -11 -14 -15 -15 -20 -22 -29 rcurveline
          62 -44 21 28 15 21 9 19 7 15 rlinecurve
          6 -15 10 -18 14 -20 21 -30 rcurveline
          61 44 -21 29 -15 21 -14 15 -13 10 rlinecurve
          16 2 21 3 23 8 rrcurveto
          endchar
        </CharString>
        <CharString name="at">
          299 233 343 rmoveto
          -176 vlineto
          -56 28 -30 60 vhcurveto
          27 hlineto
          34 27 15 36 5 hvcurveto
          -51 145 vlineto
          62 156 callsubr
          318 vlineto
          58 -29 30 -61 vhcurveto
          -394 hlineto
          -62 -28 -30 -58 hvcurveto
          -469 vlineto
          -57 28 -31 62 vhcurveto
          326 72 -301 hlineto
          -24 -5 6 23 hvcurveto
          442 24 callgsubr
          344 hlineto
          25 5 -6 -24 hvcurveto
          -295 vlineto
          -23 -5 -6 -25 vhcurveto
          -44 280 -82 -39 hlineto
          27 -9 -22 12 -30 hhcurveto
          -27 hlineto
          -60 -28 -30 -56 hvcurveto
          85 -11 rmoveto
          23 -56 callgsubr
          29 hlineto
          22 10 -8 -26 hvcurveto
          -142 vlineto
          -26 -10 -9 -22 vhcurveto
          -29 hlineto
          -24 -5 6 23 hvcurveto
          endchar
        </CharString>
        <CharString name="atilde">
          -37 113 549 rmoveto
          216 callsubr
          10 callsubr
          vlineto
          45 -461 -57 callsubr
          -39 90 488 vlineto
          endchar
        </CharString>
        <CharString name="b">
          -37 232 359 callgsubr
          -35 hlineto
          -23 -10 9 26 hvcurveto
          273 467 callgsubr
          23 vhcurveto
          35 19 callsubr
          -6 -23 hvcurveto
          -36 102 rmoveto
          326 callgsubr
          219 -90 -669 90 39 vlineto
          -27 9 22 -12 31 hhcurveto
          35 hlineto
          62 156 callsubr
          312 256 callgsubr
        </CharString>
        <CharString name="backslash">
          -7 31 700 rmoveto
          273 -820 rlineto
          84 hlineto
          -273 820 rlineto
          endchar
        </CharString>
        <CharString name="bar">
          -200 54 743 rmoveto
          -861 87 861 vlineto
          endchar
        </CharString>
        <CharString name="braceleft">
          -114 198 682 rmoveto
          22 8 8 24 vhcurveto
          45 71 -82 hlineto
          -67 -19 -37 -53 hvcurveto
          -238 vlineto
          -76 -25 -34 -58 vhcurveto
          -17 -70 17 hlineto
          58 25 -34 -74 hvcurveto
          -241 vlineto
          -54 19 -36 67 vhcurveto
          82 71 -45 hlineto
          -24 -8 8 23 hvcurveto
          254 vlineto
          69 -26 43 -50 6 vhcurveto
          49 7 27 42 72 vvcurveto
          endchar
        </CharString>
        <CharString name="braceright">
          -114 84 431 rmoveto
          -72 26 -42 50 -7 vhcurveto
          -50 -6 -26 -43 -69 vvcurveto
          -254 vlineto
          -23 -8 -8 -24 vhcurveto
          -45 -71 82 hlineto
          67 18 36 54 hvcurveto
          241 vlineto
          74 25 34 59 vhcurveto
          16 70 -16 hlineto
          -59 -25 34 76 hvcurveto
          238 vlineto
          53 -18 37 -67 vhcurveto
          -82 -71 45 hlineto
          24 8 -8 -22 hvcurveto
          endchar
        </CharString>
        <CharString name="bracketleft">
          -86 249 710 rmoveto
          73 -191 -948 191 73 -100 802 vlineto
          endchar
        </CharString>
        <CharString name="bracketright">
          -86 234 783 rmoveto
          -190 -73 99 -802 -99 -73 190 hlineto
          endchar
        </CharString>
        <CharString name="breve">
          24 271 651 rmoveto
          105 callsubr
          101 hlineto
          65 29 31 58 hvcurveto
          43 vlineto
          endchar
        </CharString>
        <CharString name="brokenbar">
          -200 52 250 rmoveto
          -347 91 347 vlineto
          125 vmoveto
          347 -91 -347 vlineto
          endchar
        </CharString>
        <CharString name="bullet">
          -1 67 321 rmoveto
          -72 59 -59 72 72 59 59 72 72 -59 59 -72 -72 -59 -59 -72 vhcurveto
          endchar
        </CharString>
        <CharString name="c">
          -46 320 334 rmoveto
          488 callgsubr
          -95 hlineto
          24 callsubr
          vlineto
          endchar
        </CharString>
        <CharString name="cacute">
          -46 321 651 76 callsubr
          -85 -31 rmoveto
          24 callsubr
          89 488 callgsubr
          endchar
        </CharString>
        <CharString name="caron">
          24 160 519 rmoveto
          101 hlineto
          95 132 rlineto
          -93 hlineto
          -53 -81 -52 81 rlineto
          -94 hlineto
          endchar
        </CharString>
        <CharString name="ccaron">
          -46 230 519 18 callsubr
          2 -31 rmoveto
          24 callsubr
          89 488 callgsubr
          endchar
        </CharString>
        <CharString name="ccedilla">
          -46 140 260 callsubr
          180 384 rmoveto
          488 callgsubr
          -95 hlineto
          24 callsubr
          vlineto
          endchar
        </CharString>
        <CharString name="cedilla">
          24 206 260 callsubr
          endchar
        </CharString>
        <CharString name="cent">
          -46 320 334 rmoveto
          488 callgsubr
          -1 77 -86 -77 -8 hlineto
          32 callgsubr
          8 -76 86 76 1 hlineto
          166 callsubr
          66 -89 -52 43 callgsubr
          -43 211 callsubr
          43 -95 callsubr
          -52 vlineto
          endchar
        </CharString>
        <CharString name="circumflex">
          24 64 519 283 callsubr
        </CharString>
        <CharString name="colon">
          -232 32 70 rmoveto
          416 callsubr
          102 vmoveto
          416 callsubr
          endchar
        </CharString>
        <CharString name="comma">
          -232 32 -140 rmoveto
          397 callsubr
        </CharString>
        <CharString name="commaaccent">
          24 161 206 callgsubr
          endchar
        </CharString>
        <CharString name="copyright">
          304 670 341 rmoveto
          184 -61 101 -156 vhcurveto
          -191 hlineto
          -156 -61 -101 -184 hvcurveto
          -63 vlineto
          -184 61 -94 156 vhcurveto
          191 hlineto
          156 61 94 184 hvcurveto
          -400 -210 rmoveto
          -110 -35 79 126 hvcurveto
          73 vlineto
          126 35 88 110 vhcurveto
          175 hlineto
          110 35 -88 -126 hvcurveto
          -73 vlineto
          -126 -35 -79 -110 vhcurveto
          -38 176 rmoveto
          -22 -5 -5 -23 vhcurveto
          -43 hlineto
          -23 -5 5 22 hvcurveto
          148 vlineto
          23 5 5 23 vhcurveto
          43 hlineto
          23 5 -5 -23 hvcurveto
          -25 80 38 vlineto
          53 -27 28 -57 vhcurveto
          -90 hlineto
          -58 -26 -28 -53 hvcurveto
          -174 vlineto
          -52 26 -28 58 vhcurveto
          90 hlineto
          57 27 28 52 hvcurveto
          39 -80 vlineto
          endchar
        </CharString>
        <CharString name="currency">
          87 222 176 rmoveto
          -31 -9 6 34 hvcurveto
          165 vlineto
          35 9 6 31 vhcurveto
          52 hlineto
          32 9 -6 -35 hvcurveto
          -165 vlineto
          -34 -9 -6 -32 vhcurveto
          123 214 rmoveto
          21 -3 17 -6 14 vhcurveto
          44 44 -58 58 -54 -54 rlineto
          1 -7 -8 0 -8 hhcurveto
          -97 hlineto
          -11 -9 -1 -1 -9 hvcurveto
          -55 55 -58 -58 49 -49 rlineto
          -5 -13 -2 -16 -18 vvcurveto
          -182 vlineto
          -16 2 -15 3 -12 vhcurveto
          -47 -47 58 -58 49 49 rlineto
          -2 11 11 -1 13 hhcurveto
          97 hlineto
          10 10 1 1 9 hvcurveto
          48 -48 58 58 -42 42 rlineto
          5 13 2 16 19 vvcurveto
          endchar
        </CharString>
        <CharString name="d">
          -37 267 callsubr
          596 rmoveto
          -219 vlineto
          268 callsubr
          vlineto
          endchar
        </CharString>
        <CharString name="dagger">
          -35 356 465 rmoveto
          470 callsubr
          -504 90 504 130 hlineto
          endchar
        </CharString>
        <CharString name="daggerdbl">
          -13 367 394 rmoveto
          71 470 callsubr
          -315 -130 -70 130 -162 90 162 130 70 -130 315 vlineto
          endchar
        </CharString>
        <CharString name="dcaron">
          -8 267 callsubr
          377 rmoveto
          268 callsubr
          -90 vlineto
          134 hmoveto
          -171 29 vlineto
          44 124 rlineto
          47 vlineto
          endchar
        </CharString>
        <CharString name="dcroat">
          -32 163 73 -48 callgsubr
          169 534 rmoveto
          -46 62 -90 -62 -80 -62 80 -96 hlineto
          57 callgsubr
          545 46 vlineto
          endchar
        </CharString>
        <CharString name="degree">
          -14 324 539 rmoveto
          57 -27 30 -64 vhcurveto
          -88 hlineto
          -64 -27 -30 -57 hvcurveto
          -110 vlineto
          -56 27 -30 64 vhcurveto
          88 hlineto
          64 27 30 56 hvcurveto
          -84 8 rmoveto
          -23 -5 -5 -25 vhcurveto
          -42 231 callsubr
          95 vlineto
          22 6 6 24 vhcurveto
          42 hlineto
          25 5 -6 -22 hvcurveto
          endchar
        </CharString>
        <CharString name="dieresis">
          24 65 541 272 callgsubr
          endchar
        </CharString>
        <CharString name="divide">
          15 25 276 rmoveto
          362 74 -362 hlineto
          136 151 rmoveto
          -88 90 88 vlineto
          -90 -289 rmoveto
          -87 90 87 vlineto
          endchar
        </CharString>
        <CharString name="dollar">
          -36 159 356 373 callgsubr
          139 -39 callsubr
          42 hlineto
          24 6 356 callsubr
          -28 31 -65 vhcurveto
          -5 77 -86 -77 -7 179 callsubr
          -165 vlineto
          -57 27 -32 64 vhcurveto
          74 42 callgsubr
          -153 vlineto
          120 callsubr
          5 -77 86 77 6 hlineto
          166 callsubr
          180 vlineto
          57 -28 31 -64 vhcurveto
          endchar
        </CharString>
        <CharString name="dotaccent">
          24 157 537 rmoveto
          107 96 -107 hlineto
          endchar
        </CharString>
        <CharString name="dotlessi">
          194 callgsubr
          endchar
        </CharString>
        <CharString name="dvBH_N">
          360 585 161 callsubr
          5 5 24 vhcurveto
          -293 -234 41 callgsubr
          128 -52 callgsubr
          72 hlineto
          90 70 rmoveto
          135 vlineto
          -63 callsubr
          -123 264 callsubr
          -153 -2 callgsubr
          168 84 -168 vlineto
          -61 29 -28 67 vhcurveto
          447 callgsubr
          -61 -27 -25 -52 -3 hvcurveto
          221 vmoveto
          -70 368 70 vlineto
          endchar
        </CharString>
        <CharString name="dvB_N">
          238 463 412 rmoveto
          -234 vlineto
          66 callgsubr
          -237 -264 -61 callsubr
          -4 -4 0 -4 hhcurveto
          28 124 rmoveto
          260 callgsubr
          27 18 401 callsubr
          33 hhcurveto
          74 hlineto
          67 29 316 callgsubr
          -306 499 callsubr
          675 70 vlineto
          endchar
        </CharString>
        <CharString name="dvCH_N">
          146 180 -212 rmoveto
          19 callgsubr
          60 694 rmoveto
          -53 -4 -27 -25 -56 vvcurveto
          -132 -104 callgsubr
          146 hlineto
          228 hmoveto
          500 callsubr
          78 vlineto
          -34 callsubr
          168 -60 -90 hlineto
          -57 -30 -26 -59 hvcurveto
          -41 80 29 -52 callgsubr
          68 -103 79 231 6 hlineto
          65 32 61 callgsubr
        </CharString>
        <CharString name="dvC_N">
          208 449 304 callsubr
          -230 rmoveto
          -69 callsubr
          -56 -80 callgsubr
          204 vlineto
          25 6 4 24 1 vhcurveto
          37 70 -219 127 callgsubr
          101 hlineto
          22 14 6 14 6 hvcurveto
          -13 16 23 -7 33 hhcurveto
          323 callsubr
          104 70 -279 vlineto
          -94 callsubr
          -292 499 callsubr
          663 70 vlineto
          endchar
        </CharString>
        <CharString name="dvDDH_DDHA">
          9 317 360 callsubr
          109 70 -446 165 callgsubr
          -201 vlineto
          -32 14 -17 219 callgsubr
          -2 -14 -16 -31 vvcurveto
          -178 vlineto
          -61 29 -28 67 vhcurveto
          131 -83 callgsubr
          39 98 callgsubr
          -87 -70 63 -95 callsubr
          -18 vlineto
          197 callgsubr
          -83 -99 callgsubr
          166 -52 callgsubr
          108 -83 callgsubr
          43 98 callgsubr
          -87 -70 63 27 callsubr
          -21 vlineto
          197 callgsubr
          -83 -99 callgsubr
          161 -65 callsubr
          endchar
        </CharString>
        <CharString name="dvDD_GA">
          -21 307 414 30 callgsubr
          -35 10 -24 23 -13 vhcurveto
          -66 252 callsubr
          188 vlineto
          22 14 10 24 34 338 callsubr
        </CharString>
        <CharString name="dvDD_N">
          -21 76 -209 rmoveto
          19 callgsubr
          136 623 63 callgsubr
        </CharString>
        <CharString name="dvDH_N">
          305 514 412 rmoveto
          -234 vlineto
          66 callgsubr
          -120 -230 rmoveto
          -64 callsubr
          23 13 417 callgsubr
          16 24 -7 33 hhcurveto
          74 -83 callgsubr
          245 128 70 -303 495 callgsubr
          395 70 vlineto
          endchar
        </CharString>
        <CharString name="dvD_N">
          -23 104 -137 rmoveto
          19 callgsubr
          123 549 110 callsubr
        </CharString>
        <CharString name="dvGH_N">
          250 389 298 callgsubr
          -687 -70 77 vlineto
          288 callgsubr
          137 hlineto
          22 14 417 callgsubr
          16 24 -7 33 hhcurveto
          74 hlineto
          67 29 316 callgsubr
          -215 vlineto
          -69 callsubr
          -98 55 callgsubr
          30 7 2 37 vhcurveto
          endchar
        </CharString>
        <CharString name="dvG_N">
          359 583 412 69 callgsubr
          -254 -249 rmoveto
          -87 callsubr
          580 478 rmoveto
          -796 -70 -95 callgsubr
          460 vlineto
          endchar
        </CharString>
        <CharString name="dvJH_N">
          359 497 383 rmoveto
          -3 callgsubr
          23 vhcurveto
          57 -234 hlineto
          -31 callgsubr
          -183 236 rmoveto
          142 462 70 -800 466 callgsubr
          -93 vlineto
          -60 callgsubr
          85 -85 hlineto
          -61 29 -28 67 vhcurveto
          74 hlineto
          67 30 316 callgsubr
          -77 -249 vlineto
          52 callgsubr
          24 hvcurveto
          36 -62 callsubr
          endchar
        </CharString>
        <CharString name="dvJ_N">
          368 581 161 callsubr
          5 5 24 vhcurveto
          271 70 rmoveto
          -571 258 callgsubr
          207 callgsubr
          -230 459 callgsubr
          245 124 vlineto
          -815 214 rmoveto
          -70 815 70 vlineto
          endchar
        </CharString>
        <CharString name="dvKH_N">
          496 694 412 rmoveto
          -234 vlineto
          -25 -6 393 callsubr
          -120 -195 rmoveto
          160 callsubr
          142 70 -317 vlineto
          -94 callsubr
          -538 499 callsubr
          188 vlineto
          -88 callgsubr
          645 70 hlineto
          endchar
        </CharString>
        <CharString name="dvK_N">
          356 594 382 rmoveto
          -204 vlineto
          197 callgsubr
          -26 -99 callgsubr
          175 -62 callsubr
          266 466 callsubr
          -823 -70 249 -376 vlineto
          -107 callgsubr
          350 vlineto
          25 8 7 24 vhcurveto
          68 hlineto
          -1 -5 0 -5 -5 vvcurveto
          -200 459 callgsubr
          215 119 70 -448 vlineto
          226 callsubr
          vlineto
          endchar
        </CharString>
        <CharString name="dvM_N">
          370 577 178 78 callsubr
          577 194 rmoveto
          70 -807 -70 597 -124 -451 124 callgsubr
          -180 -79 callsubr
          195 186 callgsubr
          -180 183 callgsubr
          195 119 70 -119 124 vlineto
          endchar
        </CharString>
        <CharString name="dvMatraI.a33">
          -107 callsubr
          968 hlineto
          27 5 -83 callsubr
        </CharString>
        <CharString name="dvMatraI.a34">
          -107 callsubr
          992 145 callsubr
          -32 480 callgsubr
        </CharString>
        <CharString name="dvMatraI.a35">
          -107 callsubr
          1016 hlineto
          27 5 -83 callsubr
        </CharString>
        <CharString name="dvMatraI.a36">
          -107 callsubr
          1040 hlineto
          27 5 -83 callsubr
        </CharString>
        <CharString name="dvMatraI.a37">
          -107 callsubr
          1064 hlineto
          27 5 -83 callsubr
        </CharString>
        <CharString name="dvMatraI.a38">
          -107 callsubr
          1087 hlineto
          27 6 -83 callsubr
        </CharString>
        <CharString name="dvMatraI.a39">
          -107 callsubr
          1112 hlineto
          26 6 -83 callsubr
        </CharString>
        <CharString name="dvMatraI.a40">
          -107 callsubr
          1135 hlineto
          27 5 -83 callsubr
        </CharString>
        <CharString name="dvMatraI.a41">
          -107 callsubr
          1159 hlineto
          27 5 -83 callsubr
        </CharString>
        <CharString name="dvMatraI.a42">
          -107 callsubr
          1183 hlineto
          26 6 -83 callsubr
        </CharString>
        <CharString name="dvMatraI.a43">
          -107 callsubr
          1207 hlineto
          26 6 -83 callsubr
        </CharString>
        <CharString name="dvMatraI.a44">
          -107 callsubr
          1231 hlineto
          27 5 -83 callsubr
        </CharString>
        <CharString name="dvMatraI.a45">
          -107 callsubr
          1254 hlineto
          27 5 -83 callsubr
        </CharString>
        <CharString name="dvMatraI.a46">
          -107 callsubr
          1278 145 callsubr
          -31 26 -57 vhcurveto
          endchar
        </CharString>
        <CharString name="dvMatraI.a47">
          -107 callsubr
          1302 hlineto
          26 6 -83 callsubr
        </CharString>
        <CharString name="dvMatraI.a48">
          -107 callsubr
          1326 hlineto
          27 5 -83 callsubr
        </CharString>
        <CharString name="dvMatraI.a49">
          -107 callsubr
          1349 145 callsubr
          -32 480 callgsubr
        </CharString>
        <CharString name="dvMatraI.a50">
          -107 callsubr
          1373 145 callsubr
          -31 26 -57 vhcurveto
          endchar
        </CharString>
        <CharString name="dvNG_GA">
          -3 307 303 180 callsubr
          -35 10 -24 23 -13 vhcurveto
          -66 252 callsubr
          188 vlineto
          22 14 10 24 34 vvcurveto
          290 callgsubr
        </CharString>
        <CharString name="dvNG_MA">
          183 400 409 rmoveto
          -83 -95 83 hlineto
          45 -235 rmoveto
          -139 152 hlineto
          57 -27 27 -65 vhcurveto
          -56 246 callgsubr
          41 -52 callgsubr
          135 142 152 hlineto
          163 70 rmoveto
          -628 -70 223 -74 -72 27 callgsubr
          -65 vlineto
          -28 callsubr
          55 -53 callsubr
          -23 hvcurveto
          -83 208 callgsubr
          -38 hlineto
          -23 -5 5 23 hvcurveto
          46 -90 -58 vlineto
          -57 27 -27 64 vhcurveto
          66 hlineto
          10 10 1 2 9 hvcurveto
          -123 90 88 139 -143 90 691 73 vlineto
          endchar
        </CharString>
        <CharString name="dvNY_CA">
          359 776 626 rmoveto
          -796 -70 634 -376 hlineto
          -24 -8 -8 -24 vhcurveto
          -53 -99 callgsubr
          204 vlineto
          28 7 2 35 vhcurveto
          25 70 -215 -70 68 324 callsubr
          -54 -115 69 vlineto
          -45 callsubr
          89 115 -89 169 callgsubr
        </CharString>
        <CharString name="dvN_N">
          335 563 161 callsubr
          6 5 23 vhcurveto
          -296 -234 -103 callsubr
          552 70 rmoveto
          -636 hlineto
          62 callgsubr
          -230 459 callgsubr
          245 109 vlineto
          -782 214 rmoveto
          -70 782 70 vlineto
          endchar
        </CharString>
        <CharString name="dvPH_N">
          376 235 35 callsubr
          366 -144 rmoveto
          -234 vlineto
          378 callsubr
          249 144 rmoveto
          70 -813 117 callgsubr
          68 343 callgsubr
          102 70 -431 vlineto
          309 callsubr
        </CharString>
        <CharString name="dvP_N">
          197 336 298 callgsubr
          -634 -70 66 185 callgsubr
          91 hlineto
          23 13 417 callgsubr
          16 24 -7 33 hhcurveto
          447 callgsubr
          -64 -28 17 callsubr
          -215 vlineto
          -69 callsubr
          -45 485 callsubr
        </CharString>
        <CharString name="dvSHA_MatraVocalicR">
          136 141 529 181 callsubr
          341 -346 rmoveto
          519 71 70 -161 -272 -96 100 callgsubr
          142 -180 -4 hlineto
          -64 -26 -28 -57 hvcurveto
          -62 vlineto
          -28 callsubr
          137 71 -109 231 callsubr
          36 -39 callsubr
          endchar
        </CharString>
        <CharString name="dvSH_VA.aSimp">
          357 142 628 rmoveto
          -106 callsubr
          541 -2 rmoveto
          -417 -70 255 -376 hlineto
          -24 -8 -8 266 callsubr
          171 callsubr
          8 8 hvcurveto
          -89 90 -82 callsubr
          endchar
        </CharString>
        <CharString name="dvS_N">
          367 590 178 rmoveto
          -25 -6 393 callsubr
          56 hlineto
          194 70 rmoveto
          -278 33 callsubr
          470 70 -803 7 callgsubr
          29 -28 67 vhcurveto
          74 hlineto
          68 29 28 61 hvcurveto
          245 103 vlineto
          endchar
        </CharString>
        <CharString name="dvTH_N">
          295 511 412 rmoveto
          -234 vlineto
          66 callgsubr
          -120 -230 rmoveto
          21 callgsubr
          16 24 -7 33 hhcurveto
          74 -83 callgsubr
          245 111 70 -286 495 callgsubr
          378 70 vlineto
          endchar
        </CharString>
        <CharString name="dvTTH_N">
          -4 91 -208 rmoveto
          19 callgsubr
          71 308 -51 callgsubr
          -61 29 -28 67 vhcurveto
          77 -60 -57 hlineto
          -58 -29 -26 -59 hvcurveto
          -41 80 29 -62 callsubr
          35 -103 80 240 hlineto
          29 13 13 26 41 vvcurveto
          119 callgsubr
        </CharString>
        <CharString name="dvTTH_TTHA">
          9 283 281 46 callsubr
          -82 -89 callgsubr
          105 -65 callsubr
          82 27 callsubr
          -448 vmoveto
          197 callgsubr
          -82 457 callgsubr
          82 27 callsubr
          129 513 rmoveto
          70 -432 -70 184 -71 -16 vlineto
          -67 -29 -28 -61 hvcurveto
          -125 vlineto
          -61 29 -28 67 vhcurveto
          16 -40 -16 hlineto
          -67 -29 -27 -62 hvcurveto
          -125 vlineto
          391 callgsubr
          128 404 callsubr
          125 98 callgsubr
          -20 40 20 -83 callgsubr
          125 vlineto
          61 -29 28 -67 vhcurveto
          -20 71 hlineto
          endchar
        </CharString>
        <CharString name="dvTT_GA">
          -31 317 412 82 callsubr
          -35 10 -25 21 -14 vhcurveto
          -68 252 callsubr
          192 vlineto
          19 15 9 23 34 vvcurveto
          114 -90 -103 vlineto
          -25 -6 -5 -24 vhcurveto
          -30 -86 callsubr
          endchar
        </CharString>
        <CharString name="dvTT_N">
          -31 87 -212 rmoveto
          19 callgsubr
          135 624 104 callgsubr
        </CharString>
        <CharString name="dvT_KH_NA">
          829 904 144 callsubr
          6 5 23 vhcurveto
          57 hlineto
          335 214 rmoveto
          -1259 53 callgsubr
          242 73 -220 342 callsubr
          585 195 callsubr
          -180 vlineto
          249 callsubr
          57 hlineto
          21 14 5 11 8 hvcurveto
          -33 11 29 -15 50 hhcurveto
          74 hlineto
          67 422 callsubr
        </CharString>
        <CharString name="dvT_N">
          221 422 161 callsubr
          6 5 23 vhcurveto
          273 70 rmoveto
          -502 hlineto
          -84 callsubr
          84 317 callsubr
          74 hlineto
          67 29 28 61 hvcurveto
          245 126 vlineto
          -658 214 rmoveto
          -70 658 70 vlineto
          endchar
        </CharString>
        <CharString name="dvT_R_KA">
          380 797 451 callgsubr
          -817 -70 478 -376 vlineto
          -104 callsubr
          -56 hlineto
          -65 -27 -27 -58 hvcurveto
          -130 -9 vlineto
          503 callsubr
          -14 callsubr
          23 -31 hlineto
          -9 callgsubr
        </CharString>
        <CharString name="dvT_S_NA">
          720 975 482 rmoveto
          -257 33 callsubr
          450 hlineto
          -172 -378 rmoveto
          66 callgsubr
          57 hlineto
          334 214 rmoveto
          -1157 -70 431 290 callsubr
          44 callgsubr
          181 280 -111 vlineto
          -61 29 -28 68 379 callgsubr
        </CharString>
        <CharString name="dvV_N">
          187 412 304 callsubr
          -233 rmoveto
          -22 -8 -9 266 callsubr
          58 hlineto
          31 19 8 17 10 hvcurveto
          -17 16 25 -8 36 hhcurveto
          75 hlineto
          67 29 316 callgsubr
          -255 499 callsubr
          624 70 vlineto
          endchar
        </CharString>
        <CharString name="dvY_N">
          280 418 383 rmoveto
          -3 callgsubr
          23 vhcurveto
          57 -234 hlineto
          -31 callgsubr
          279 448 rmoveto
          -717 -70 131 106 callsubr
          178 hlineto
          22 13 6 15 7 hvcurveto
          -14 16 23 -7 33 hhcurveto
          74 hlineto
          67 30 316 callgsubr
          -215 vlineto
          -77 callgsubr
          463 hlineto
          endchar
        </CharString>
        <CharString name="e">
          -37 130 282 -90 callsubr
        </CharString>
        <CharString name="eacute">
          -37 327 651 76 callsubr
          -92 -237 -90 callsubr
        </CharString>
        <CharString name="ecaron">
          -37 235 519 18 callsubr
          -4 -237 -90 callsubr
        </CharString>
        <CharString name="ecircumflex">
          -39 186 600 63 callsubr
          -4 -237 -90 callsubr
        </CharString>
        <CharString name="edieresis">
          -39 325 635 183 callsubr
          -6 -259 -90 callsubr
        </CharString>
        <CharString name="edotaccent">
          -37 241 633 rmoveto
          -107 -96 107 hlineto
          -111 -255 -90 callsubr
        </CharString>
        <CharString name="egrave">
          -37 217 519 164 callsubr
          -10 -237 -90 callsubr
        </CharString>
        <CharString name="eight">
          47 callsubr
        </CharString>
        <CharString name="ellipsis">
          158 52 hmoveto
          109 119 -109 hlineto
          195 -119 rmoveto
          108 119 -108 hlineto
          194 -119 rmoveto
          109 119 -109 hlineto
          endchar
        </CharString>
        <CharString name="emacron">
          -37 313 619 295 callsubr
          -183 -269 -90 callsubr
        </CharString>
        <CharString name="emdash">
          139 10 259 rmoveto
          514 70 -514 hlineto
          endchar
        </CharString>
        <CharString name="endash">
          23 25 259 rmoveto
          347 70 -347 hlineto
          endchar
        </CharString>
        <CharString name="eogonek">
          -37 130 282 rmoveto
          106 vlineto
          23 6 6 24 vhcurveto
          49 232 callgsubr
          -106 vlineto
          -103 206 90 callsubr
          20 -23 -8 hlineto
          90 callgsubr
          -81 hlineto
          108 callgsubr
          86 5 hlineto
          172 callgsubr
          53 -88 -40 vlineto
          -24 -6 -6 -24 vhcurveto
          -46 hlineto
          -24 -6 6 23 hvcurveto
          116 197 183 301 callgsubr
          -65 vhcurveto
          endchar
        </CharString>
        <CharString name="equal">
          23 29 365 rmoveto
          362 76 -362 hlineto
          -256 vmoveto
          362 76 -362 hlineto
          endchar
        </CharString>
        <CharString name="eth">
          -19 241 359 callgsubr
          -53 -89 callgsubr
          214 -39 callsubr
          80 hlineto
          2 -15 1 -15 -15 vvcurveto
          77 266 rmoveto
          55 vlineto
          -89 -32 -11 14 -12 12 -11 11 rlinecurve
          -125 hlineto
          24 -19 24 -23 23 -27 -62 -22 rcurveline
          -55 vlineto
          95 34 19 -29 17 -33 12 -36 rlinecurve
          -91 hlineto
          -64 -29 -31 -58 hvcurveto
          -239 171 callgsubr
          106 hlineto
          166 callsubr
          221 vlineto
          96 -31 80 -39 60 vhcurveto
          endchar
        </CharString>
        <CharString name="exclam">
          -188 50 626 rmoveto
          17 -422 rlineto
          75 hlineto
          17 422 rlineto
          -106 -626 rmoveto
          416 callsubr
          endchar
        </CharString>
        <CharString name="exclamdown">
          -188 53 365 rmoveto
          416 callsubr
          106 -626 rmoveto
          -17 422 rlineto
          -75 hlineto
          -17 -422 rlineto
          endchar
        </CharString>
        <CharString name="f">
          -175 217 593 rmoveto
          76 -69 vlineto
          228 callsubr
          -93 -49 -73 49 -415 90 415 72 73 -72 76 -39 callsubr
          endchar
        </CharString>
        <CharString name="fi">
          -21 333 488 rmoveto
          -189 77 hlineto
          23 6 6 24 vhcurveto
          20 75 -46 179 callsubr
          -93 -49 -73 49 -415 89 415 99 -415 90 vlineto
          -90 669 rmoveto
          -75 90 75 vlineto
          endchar
        </CharString>
        <CharString name="five">
          148 callgsubr
        </CharString>
        <CharString name="fl">
          -21 243 669 rmoveto
          -181 -99 77 vlineto
          23 6 6 24 vhcurveto
          20 75 -46 179 callsubr
          -93 -49 -73 49 -415 89 415 99 -415 90 669 vlineto
          endchar
        </CharString>
        <CharString name="florin">
          -44 307 592 rmoveto
          77 -74 vlineto
          -64 -22 -31 -57 -7 hvcurveto
          -12 -93 rlineto
          -75 -73 65 hlineto
          -58 -451 rlineto
          -24 -3 -3 -5 -24 hhcurveto
          -47 -77 74 hlineto
          64 21 31 57 8 hvcurveto
          61 469 rlineto
          96 73 -87 hlineto
          10 75 rlineto
          24 3 3 5 24 hhcurveto
          endchar
        </CharString>
        <CharString name="four">
          238 callsubr
        </CharString>
        <CharString name="fraction">
          254 callgsubr
        </CharString>
        <CharString name="g">
          -37 158 79 94 callgsubr
        </CharString>
        <CharString name="gbreve">
          -37 158 79 rmoveto
          -24 -6 6 23 hvcurveto
          278 351 callsubr
          -266 389 callsubr
          370 rmoveto
          79 callsubr
          -90 vlineto
          14 163 rmoveto
          105 callsubr
          101 hlineto
          65 29 31 58 hvcurveto
          43 vlineto
          endchar
        </CharString>
        <CharString name="germandbls">
          80 200 151 rmoveto
          -63 265 callsubr
          63 vhcurveto
          64 hlineto
          64 27 31 57 hvcurveto
          102 vlineto
          57 -29 31 -64 50 callgsubr
          37 -39 callsubr
          18 hlineto
          56 24 24 49 hvcurveto
          67 vlineto
          57 -29 30 -62 vhcurveto
          -188 hlineto
          -64 -27 -31 -57 hvcurveto
          -512 90 495 vlineto
          24 7 6 24 vhcurveto
          129 hlineto
          24 5 -6 -24 hvcurveto
          -31 vlineto
          -21 -6 -3 -30 -57 -31 -27 -59 vhcurveto
          -56 vlineto
          -58 27 -31 64 vhcurveto
          38 42 callgsubr
          -81 -7 callgsubr
          -11 hlineto
          -24 -5 6 23 hvcurveto
          52 vlineto
          endchar
        </CharString>
        <CharString name="grave">
          24 216 651 397 callgsubr
        </CharString>
        <CharString name="greater">
          23 306 314 rmoveto
          -277 -87 rlineto
          -81 vlineto
          362 122 rlineto
          92 vlineto
          -362 120 rlineto
          -80 vlineto
          endchar
        </CharString>
        <CharString name="greaterequal">
          58 320 371 rmoveto
          -275 -77 rlineto
          -79 vlineto
          365 123 rlineto
          71 vlineto
          -365 115 rlineto
          -77 vlineto
          -332 vmoveto
          365 69 -365 hlineto
          endchar
        </CharString>
        <CharString name="guillemotleft">
          93 156 104 rmoveto
          94 hlineto
          -120 154 120 156 rlineto
          -94 hlineto
          -119 -155 rlineto
          321 -155 rmoveto
          95 hlineto
          -121 154 121 156 rlineto
          -95 hlineto
          -118 -155 rlineto
          endchar
        </CharString>
        <CharString name="guillemotright">
          93 250 259 rmoveto
          -119 155 rlineto
          -94 hlineto
          121 -156 -121 -154 rlineto
          94 hlineto
          322 155 rmoveto
          -119 155 rlineto
          -94 hlineto
          120 -156 -120 -154 rlineto
          94 hlineto
          endchar
        </CharString>
        <CharString name="guilsinglleft">
          -107 156 104 rmoveto
          96 hlineto
          -120 154 120 156 rlineto
          -96 hlineto
          -119 -155 rlineto
          endchar
        </CharString>
        <CharString name="guilsinglright">
          -106 252 259 rmoveto
          -119 155 rlineto
          -96 hlineto
          121 -156 -121 -154 rlineto
          96 hlineto
          endchar
        </CharString>
        <CharString name="h">
          -32 196 488 rmoveto
          326 callgsubr
          220 -90 -669 90 380 467 callgsubr
          23 vhcurveto
          35 -95 callsubr
          -386 90 399 256 callgsubr
        </CharString>
        <CharString name="hungarumlaut">
          24 184 519 rmoveto
          66 hlineto
          106 132 rlineto
          -90 hlineto
          -201 -132 rmoveto
          66 hlineto
          106 132 rlineto
          -90 hlineto
          endchar
        </CharString>
        <CharString name="hyphen">
          459 callsubr
        </CharString>
        <CharString name="i">
          194 callgsubr
          -2 581 rmoveto
          94 89 -94 hlineto
          endchar
        </CharString>
        <CharString name="iacute">
          194 callgsubr
          3 519 218 callsubr
          endchar
        </CharString>
        <CharString name="icircumflex">
          194 callgsubr
          -101 519 283 callsubr
        </CharString>
        <CharString name="idieresis">
          194 callgsubr
          -101 541 272 callgsubr
          endchar
        </CharString>
        <CharString name="igrave">
          194 callgsubr
          2 651 397 callgsubr
        </CharString>
        <CharString name="imacron">
          194 callgsubr
          -89 551 387 callgsubr
        </CharString>
        <CharString name="infinity">
          193 477 301 rmoveto
          -26 -3 -8 -28 vhcurveto
          -32 hlineto
          -21 -10 8 15 -11 hvcurveto
          -41 54 37 60 rlineto
          16 12 7 10 17 hhcurveto
          42 hlineto
          28 3 -10 -24 hvcurveto
          -333 -129 rmoveto
          -28 -3 8 26 hvcurveto
          94 vlineto
          24 3 10 28 vhcurveto
          22 hlineto
          27 10 -12 -22 16 hvcurveto
          36 -52 -31 -47 rlineto
          -15 -10 -18 -14 -21 hhcurveto
          239 227 rmoveto
          -60 -10 -13 -53 -34 hvcurveto
          -17 -26 -22 31 rlineto
          45 -33 -16 16 -57 hhcurveto
          -37 hlineto
          -65 -26 -34 -51 hvcurveto
          -121 vlineto
          -53 26 -33 65 vhcurveto
          32 hlineto
          71 20 12 63 39 hvcurveto
          5 8 17 -25 rlineto
          -48 35 19 -10 57 hhcurveto
          38 hlineto
          67 25 33 53 hvcurveto
          121 vlineto
          51 -25 34 -67 vhcurveto
          endchar
        </CharString>
        <CharString name="integral">
          -104 194 619 rmoveto
          23 5 6 25 vhcurveto
          47 77 -74 hlineto
          -64 -29 -31 -58 hvcurveto
          -653 vlineto
          -23 -3 -3 -6 -24 hhcurveto
          -48 -77 75 hlineto
          64 29 31 58 hvcurveto
          endchar
        </CharString>
        <CharString name="iogonek">
          -219 136 670 rmoveto
          -94 -89 94 hlineto
          -65 -743 409 callsubr
          -488 19 -23 -8 hlineto
          412 callgsubr
        </CharString>
        <CharString name="itfLogo">
          1251 147 hmoveto
          261 callsubr
          236 -634 rmoveto
          261 callsubr
          236 -634 rmoveto
          261 callsubr
          -410 vmoveto
          196 185 -196 hlineto
          endchar
        </CharString>
        <CharString name="itfStar">
          275 663 452 rmoveto
          -28 -200 -6 -2 -34 hvcurveto
          -66 246 -8 -27 -53 -188 -8 -31 rlinecurve
          -261 8 25 -15 168 -108 28 -17 rlinecurve
          -96 -247 24 20 152 128 29 20 rlinecurve
          204 -168 -11 28 -71 189 -12 30 rlinecurve
          endchar
        </CharString>
        <CharString name="j">
          -219 44 -38 rmoveto
          -23 -6 -6 -24 vhcurveto
          -18 -71 45 hlineto
          64 29 30 58 hvcurveto
          538 -90 vlineto
          -2 93 rmoveto
          94 89 -94 hlineto
          endchar
        </CharString>
        <CharString name="k">
          -40 44 hmoveto
          90 669 -90 hlineto
          310 -181 368 callgsubr
        </CharString>
        <CharString name="l">
          -219 134 hmoveto
          476 callgsubr
          endchar
        </CharString>
        <CharString name="lacute">
          -219 50 700 218 callsubr
          2 -832 rmoveto
          476 callgsubr
          endchar
        </CharString>
        <CharString name="lcaron">
          -187 134 hmoveto
          476 callgsubr
          134 498 rmoveto
          30 hlineto
          43 124 rlineto
          47 -73 vlineto
          endchar
        </CharString>
        <CharString name="less">
          23 391 400 rmoveto
          80 vlineto
          -362 -120 rlineto
          -92 vlineto
          362 -122 rlineto
          81 vlineto
          -277 87 rlineto
          endchar
        </CharString>
        <CharString name="lessequal">
          58 402 447 rmoveto
          77 vlineto
          -365 -115 rlineto
          -71 vlineto
          365 -123 rlineto
          79 vlineto
          -276 77 rlineto
          276 -187 rmoveto
          -365 -69 365 hlineto
          endchar
        </CharString>
        <CharString name="logicalnot">
          63 416 400 rmoveto
          -382 -91 311 -148 71 hlineto
          endchar
        </CharString>
        <CharString name="lozenge">
          102 254 82 rmoveto
          -110 232 110 231 110 -231 rlineto
          -70 312 rmoveto
          -81 hlineto
          -161 -312 161 -314 rlineto
          81 hlineto
          162 314 rlineto
          endchar
        </CharString>
        <CharString name="lslash">
          -209 233 460 rmoveto
          -94 -44 rlineto
          253 -90 -294 vlineto
          -83 -39 rlineto
          -71 vlineto
          83 39 rlineto
          -304 90 346 vlineto
          94 44 rlineto
          endchar
        </CharString>
        <CharString name="m">
          151 384 488 rmoveto
          -36 -26 -15 -30 -8 hvcurveto
          29 -12 -27 16 -44 hhcurveto
          -35 hlineto
          310 callsubr
          -488 90 380 467 callgsubr
          23 vhcurveto
          35 -95 callsubr
          -386 90 380 467 callgsubr
          22 vhcurveto
          36 42 callgsubr
          -386 90 399 vlineto
          58 -28 31 -62 vhcurveto
          endchar
        </CharString>
        <CharString name="macron">
          24 76 551 387 callgsubr
        </CharString>
        <CharString name="minus">
          43 23 276 rmoveto
          362 74 -362 hlineto
          endchar
        </CharString>
        <CharString name="multiply">
          -19 354 420 rmoveto
          -56 56 -109 -109 -109 109 -56 -56 109 -109 -109 -109 56 -56 109 109 109 -109 56 56 -109 109 rlineto
          endchar
        </CharString>
        <CharString name="n">
          -32 196 488 26 callsubr
        </CharString>
        <CharString name="nacute">
          -32 323 651 76 callsubr
          -22 -31 26 callsubr
        </CharString>
        <CharString name="ncaron">
          -32 226 519 18 callsubr
          71 -31 26 callsubr
        </CharString>
        <CharString name="nine">
          91 callgsubr
        </CharString>
        <CharString name="notequal">
          89 442 319 rmoveto
          73 -127 vlineto
          63 131 rlineto
          -67 hlineto
          -63 -131 rlineto
          -203 -73 168 hlineto
          -3 -6 rlineto
          -165 -73 130 hlineto
          -66 -136 rlineto
          66 hlineto
          66 136 rlineto
          201 73 -166 hlineto
          3 6 rlineto
          endchar
        </CharString>
        <CharString name="ntilde">
          -32 112 549 rmoveto
          216 callsubr
          10 callsubr
          vlineto
          84 -46 26 callsubr
        </CharString>
        <CharString name="numbersign">
          99 290 230 rmoveto
          -113 hlineto
          29 166 rlineto
          114 hlineto
          146 hmoveto
          69 -54 vlineto
          29 161 rlineto
          -80 hlineto
          -29 -161 rlineto
          -114 hlineto
          29 161 rlineto
          -80 hlineto
          -29 -161 rlineto
          -74 -69 62 hlineto
          -30 -166 rlineto
          -66 -69 54 hlineto
          -29 -161 rlineto
          81 hlineto
          29 161 rlineto
          113 hlineto
          -29 -161 rlineto
          80 hlineto
          29 161 rlineto
          75 69 -63 hlineto
          30 166 rlineto
          endchar
        </CharString>
        <CharString name="o">
          -27 242 101 -78 callsubr
        </CharString>
        <CharString name="oacute">
          -27 326 651 76 callsubr
          21 -418 -78 callsubr
        </CharString>
        <CharString name="ocircumflex">
          -27 183 600 63 callsubr
          111 -418 -78 callsubr
        </CharString>
        <CharString name="odieresis">
          -27 330 635 183 callsubr
          101 -440 -78 callsubr
        </CharString>
        <CharString name="oe">
          187 320 283 rmoveto
          104 -62 callsubr
          48 42 callgsubr
          -104 vlineto
          -195 -180 rmoveto
          -23 -2 -10 -7 -21 hhcurveto
          -35 hlineto
          31 callgsubr
          21 10 -8 -22 2 hvcurveto
          113 103 rmoveto
          381 callgsubr
          -311 214 callsubr
          195 184 vlineto
          58 407 callsubr
          endchar
        </CharString>
        <CharString name="ogonek">
          24 222 -162 rmoveto
          108 callgsubr
          97 -71 -34 -8 hlineto
          412 callgsubr
        </CharString>
        <CharString name="ograve">
          -27 220 519 164 callsubr
          99 -418 -78 callsubr
        </CharString>
        <CharString name="ohungarumlaut">
          -27 276 519 152 callgsubr
          85 -418 -78 callsubr
        </CharString>
        <CharString name="omacron">
          -27 316 619 295 callsubr
          -74 -450 -78 callsubr
        </CharString>
        <CharString name="one">
          411 callsubr
        </CharString>
        <CharString name="onesuperior">
          -252 111 626 rmoveto
          -100 -47 39 -297 61 hlineto
          endchar
        </CharString>
        <CharString name="ordfeminine">
          -140 107 334 rmoveto
          -18 -4 4 17 hvcurveto
          200 vlineto
          17 4 3 18 vhcurveto
          37 hlineto
          16 6 -7 -18 hvcurveto
          -192 vlineto
          -18 -6 -6 -16 vhcurveto
          23 292 rmoveto
          -27 vlineto
          18 -6 -15 9 -22 hhcurveto
          -35 hlineto
          -44 -20 -21 -42 hvcurveto
          -218 vlineto
          -42 20 -21 44 vhcurveto
          36 hlineto
          21 14 8 16 6 hvcurveto
          -24 61 344 vlineto
          endchar
        </CharString>
        <CharString name="ordmasculine">
          -149 162 350 rmoveto
          -16 -4 -4 -18 vhcurveto
          -33 hlineto
          -18 -3 4 16 hvcurveto
          208 vlineto
          17 3 4 18 vhcurveto
          33 hlineto
          18 4 -4 -17 hvcurveto
          -71 68 rmoveto
          -46 -19 -21 -42 hvcurveto
          -218 vlineto
          -42 19 -21 46 vhcurveto
          66 hlineto
          45 20 21 42 hvcurveto
          218 vlineto
          42 -20 21 -45 vhcurveto
          endchar
        </CharString>
        <CharString name="oslash">
          -19 248 96 rmoveto
          -25 -5 -5 -25 vhcurveto
          -58 hlineto
          -12 -7 1 4 -5 hvcurveto
          112 244 rlineto
          -119 77 rmoveto
          7 callsubr
          25 vhcurveto
          58 hlineto
          12 7 -1 -4 4 hvcurveto
          -112 -245 rlineto
          208 336 rmoveto
          -54 hlineto
          -10 -23 rlineto
          2 -10 -10 1 -11 hhcurveto
          -107 hlineto
          -64 -28 278 callsubr
          -27 6 -20 13 -15 vhcurveto
          -21 -46 rlineto
          53 hlineto
          11 23 rlineto
          -2 9 10 -1 11 hhcurveto
          107 hlineto
          65 28 31 57 hvcurveto
          311 vlineto
          27 -6 21 -13 15 vhcurveto
          endchar
        </CharString>
        <CharString name="otilde">
          -27 116 549 rmoveto
          216 callsubr
          10 callsubr
          vlineto
          126 -433 -78 callsubr
        </CharString>
        <CharString name="p">
          -37 232 359 callgsubr
          -35 hlineto
          -23 -10 9 26 hvcurveto
          272 467 callgsubr
          23 vhcurveto
          35 -95 callsubr
          -36 102 rmoveto
          310 callsubr
          -626 90 177 vlineto
          -27 9 22 -12 31 hhcurveto
          35 hlineto
          62 156 callsubr
          311 256 callgsubr
        </CharString>
        <CharString name="paragraph">
          110 287 626 rmoveto
          -145 179 callsubr
          -224 171 callgsubr
          63 -364 82 hlineto
          76 764 rmoveto
          -764 82 764 vlineto
          endchar
        </CharString>
        <CharString name="parenleft">
          -133 47 244 rmoveto
          -268 72 -151 149 vhcurveto
          15 75 hlineto
          -13 1 rlineto
          -99 6 -34 137 198 vvcurveto
          134 vlineto
          198 34 137 99 6 vhcurveto
          13 1 rlineto
          76 -15 vlineto
          -149 -72 -152 -267 hvcurveto
          endchar
        </CharString>
        <CharString name="parenright">
          -133 215 375 rmoveto
          267 -72 152 -149 vhcurveto
          -15 -76 hlineto
          13 -1 rlineto
          99 -6 34 -137 -198 vvcurveto
          -134 vlineto
          -198 -34 -137 -99 -6 vhcurveto
          -13 -1 rlineto
          -75 15 vlineto
          149 72 151 268 hvcurveto
          endchar
        </CharString>
        <CharString name="percent">
          244 32 callsubr
          endchar
        </CharString>
        <CharString name="period">
          -232 32 hmoveto
          416 callsubr
          endchar
        </CharString>
        <CharString name="periodcentered">
          -180 34 259 rmoveto
          101 121 -101 hlineto
          endchar
        </CharString>
        <CharString name="perthousand">
          518 32 callsubr
          382 -365 rmoveto
          51 -24 26 -54 vhcurveto
          -67 hlineto
          -54 -23 -26 -51 hvcurveto
          -184 vlineto
          -51 23 -26 54 vhcurveto
          67 hlineto
          54 24 26 51 hvcurveto
          -74 11 rmoveto
          -22 -4 -5 -23 vhcurveto
          -21 hlineto
          -23 -3 5 22 hvcurveto
          162 vlineto
          22 3 5 23 vhcurveto
          21 hlineto
          23 4 -5 -22 hvcurveto
          endchar
        </CharString>
        <CharString name="pi">
          39 434 488 rmoveto
          -367 -382 hlineto
          -24 -5 -5 -25 vhcurveto
          -35 -77 62 hlineto
          172 callgsubr
          329 116 -417 90 417 71 vlineto
          endchar
        </CharString>
        <CharString name="plus">
          11 385 350 rmoveto
          -136 151 -90 -151 -136 -74 136 -151 90 151 136 hlineto
          endchar
        </CharString>
        <CharString name="plusminus">
          23 29 171 rmoveto
          362 73 -362 hlineto
          226 182 rmoveto
          79 -90 -79 -136 -72 136 -79 90 79 136 72 vlineto
          endchar
        </CharString>
        <CharString name="product">
          39 383 590 rmoveto
          36 -316 -520 -7 callgsubr
          -30 -77 56 hlineto
          166 callsubr
          467 135 -555 91 590 vlineto
          endchar
        </CharString>
        <CharString name="q">
          -37 158 73 -57 callsubr
          -177 90 626 vlineto
          endchar
        </CharString>
        <CharString name="question">
          -55 103 hmoveto
          416 callsubr
          10 503 rmoveto
          -66 -27 -34 -53 hvcurveto
          -85 91 72 vlineto
          22 4 8 24 vhcurveto
          44 hlineto
          24 4 -8 -22 hvcurveto
          -161 vlineto
          -22 -4 -8 -24 vhcurveto
          -75 hlineto
          8 -131 rlineto
          76 hlineto
          4 66 rlineto
          13 hlineto
          66 27 34 53 hvcurveto
          182 vlineto
          53 -27 34 -66 vhcurveto
          endchar
        </CharString>
        <CharString name="questiondown">
          -55 219 488 rmoveto
          -101 -123 101 hlineto
          -8 -331 rmoveto
          -72 vlineto
          -22 -4 -8 -24 vhcurveto
          -44 hlineto
          -24 -4 8 22 hvcurveto
          161 vlineto
          22 4 8 24 vhcurveto
          75 hlineto
          -8 131 rlineto
          -76 hlineto
          -4 -66 rlineto
          -13 hlineto
          -66 -27 -34 -53 hvcurveto
          -182 vlineto
          -53 27 -34 66 vhcurveto
          96 hlineto
          66 27 34 53 hvcurveto
          85 vlineto
          endchar
        </CharString>
        <CharString name="quotedbl">
          -105 36 626 rmoveto
          -223 83 223 vlineto
          54 hmoveto
          -223 83 223 vlineto
          endchar
        </CharString>
        <CharString name="quotedblbase">
          -83 181 -140 rmoveto
          31 hlineto
          70 198 rlineto
          65 -101 vlineto
          -149 -263 rmoveto
          31 hlineto
          70 198 rlineto
          65 -101 vlineto
          endchar
        </CharString>
        <CharString name="quotedblleft">
          -83 450 callgsubr
          149 262 rmoveto
          -31 hlineto
          -70 -198 rlineto
          -64 101 vlineto
          endchar
        </CharString>
        <CharString name="quotedblright">
          -83 181 364 414 callgsubr
          -149 -262 414 callgsubr
          endchar
        </CharString>
        <CharString name="quoteleft">
          -231 450 callgsubr
          endchar
        </CharString>
        <CharString name="quoteright">
          -231 32 364 414 callgsubr
          endchar
        </CharString>
        <CharString name="quotesinglbase">
          -232 32 -140 rmoveto
          397 callsubr
        </CharString>
        <CharString name="quotesingle">
          -236 36 626 rmoveto
          -223 89 223 vlineto
          endchar
        </CharString>
        <CharString name="r">
          -159 213 489 336 callsubr
        </CharString>
        <CharString name="racute">
          -159 285 651 76 callsubr
          -46 332 callsubr
        </CharString>
        <CharString name="rcaron">
          -159 189 519 18 callsubr
          46 332 callsubr
        </CharString>
        <CharString name="registered">
          17 380 535 rmoveto
          101 -34 56 -86 vhcurveto
          -106 hlineto
          -87 -33 -56 -101 hvcurveto
          -35 vlineto
          -101 33 -53 87 vhcurveto
          106 hlineto
          86 34 53 101 hvcurveto
          -221 -115 rmoveto
          -61 -19 42 70 hvcurveto
          40 vlineto
          70 19 48 61 vhcurveto
          97 hlineto
          61 18 -48 -70 hvcurveto
          -40 vlineto
          -70 -18 -42 -61 vhcurveto
          -100 240 rmoveto
          -208 36 81 10 vlineto
          32 -81 rlineto
          38 hlineto
          -33 83 rlineto
          15 3 7 11 18 vvcurveto
          61 vlineto
          21 -11 11 -24 vhcurveto
          -2 -90 rmoveto
          -5 -1 -1 -5 vhcurveto
          -26 67 26 hlineto
          5 1 -2 -5 hvcurveto
          endchar
        </CharString>
        <CharString name="ring">
          24 316 594 rmoveto
          47 -22 23 -51 vhcurveto
          -65 hlineto
          -51 -22 -23 -47 hvcurveto
          -17 vlineto
          -47 22 -23 51 vhcurveto
          65 hlineto
          51 22 23 47 hvcurveto
          -63 5 rmoveto
          -20 -3 -5 -23 vhcurveto
          -33 hlineto
          -23 -3 5 20 hvcurveto
          7 vlineto
          20 3 5 23 vhcurveto
          33 hlineto
          23 3 -5 -20 hvcurveto
          endchar
        </CharString>
        <CharString name="s">
          -69 207 98 -65 callgsubr
        </CharString>
        <CharString name="sacute">
          -69 133 519 218 callsubr
          -8 -553 -65 callgsubr
        </CharString>
        <CharString name="scaron">
          -69 112 519 rmoveto
          101 hlineto
          95 132 rlineto
          -93 hlineto
          -53 -81 -52 81 rlineto
          -94 hlineto
          191 -553 -65 callgsubr
        </CharString>
        <CharString name="section">
          412 479 388 rmoveto
          24 5 -6 -23 hvcurveto
          -90 -7 callgsubr
          -76 -89 callgsubr
          90 vlineto
          23 6 6 24 vhcurveto
          194 146 rmoveto
          46 440 callsubr
          -94 179 callsubr
          -104 vlineto
          -21 4 -17 7 -13 vhcurveto
          -32 -14 -11 -32 -44 vvcurveto
          -77 474 callsubr
          67 -95 callsubr
          -82 vlineto
          205 callgsubr
          35 -90 -45 474 callsubr
          94 hlineto
          65 29 31 58 hvcurveto
          103 vlineto
          20 -3 16 -7 14 vhcurveto
          31 13 11 32 43 vvcurveto
          81 vlineto
          58 -29 30 -65 vhcurveto
          -66 hlineto
          -24 -6 6 24 hvcurveto
          81 vlineto
          24 6 6 24 vhcurveto
          41 hlineto
          24 5 -6 -24 hvcurveto
          -35 vlineto
          endchar
        </CharString>
        <CharString name="semicolon">
          -232 32 365 rmoveto
          416 callsubr
          -628 vmoveto
          397 callsubr
        </CharString>
        <CharString name="seven">
          332 callgsubr
        </CharString>
        <CharString name="six">
          93 callsubr
        </CharString>
        <CharString name="slash">
          254 callgsubr
        </CharString>
        <CharString name="space">
          -252 endchar
        </CharString>
        <CharString name="sterling">
          -10 145 73 rmoveto
          23 15 3 29 37 vvcurveto
          113 131 71 -131 186 -39 callsubr
          39 hlineto
          24 5 356 callsubr
          -29 31 -64 vhcurveto
          -94 179 callsubr
          -200 -48 -71 48 -101 vlineto
          -65 -11 -29 -37 -1 vhcurveto
          -71 332 73 vlineto
          endchar
        </CharString>
        <CharString name="t">
          -178 209 415 289 callgsubr
        </CharString>
        <CharString name="tcaron">
          -178 142 571 rmoveto
          -91 -83 -46 -73 46 -327 hlineto
          -57 29 -31 65 vhcurveto
          64 77 -38 -17 callsubr
          309 67 73 -67 vlineto
          42 181 rmoveto
          -151 29 vlineto
          56 104 rlineto
          47 vlineto
          endchar
        </CharString>
        <CharString name="thorn">
          -35 230 102 rmoveto
          14 callgsubr
          -36 hlineto
          -22 -10 9 26 hvcurveto
          272 467 callgsubr
          22 vhcurveto
          36 42 callgsubr
          -35 102 rmoveto
          -32 -22 -12 -27 -9 hvcurveto
          220 -89 -807 90 174 vlineto
          -25 9 23 -11 30 hhcurveto
          35 hlineto
          62 156 callsubr
          311 256 callgsubr
        </CharString>
        <CharString name="three">
          72 callsubr
        </CharString>
        <CharString name="threesuperior">
          -183 76 563 rmoveto
          12 3 4 13 vhcurveto
          21 hlineto
          13 3 -4 -12 hvcurveto
          -68 vlineto
          -12 -3 -4 -13 vhcurveto
          -31 -47 31 hlineto
          13 3 -3 -13 hvcurveto
          -70 vlineto
          -13 -3 -3 -13 vhcurveto
          -21 hlineto
          -13 -3 3 13 hvcurveto
          43 -61 -59 vlineto
          -31 17 -17 35 vhcurveto
          71 hlineto
          35 16 17 31 hvcurveto
          94 vlineto
          18 -7 11 -15 3 vhcurveto
          15 3 7 12 19 vvcurveto
          88 vlineto
          31 -16 17 -35 vhcurveto
          -71 hlineto
          -35 -17 -17 -31 hvcurveto
          -59 61 vlineto
          endchar
        </CharString>
        <CharString name="tilde">
          24 266 534 rmoveto
          10 callsubr
          15 vlineto
          216 callsubr
          endchar
        </CharString>
        <CharString name="trademark">
          229 6 560 rmoveto
          81 -258 79 258 82 66 -242 hlineto
          495 hmoveto
          -61 -185 -62 185 rlineto
          -94 -324 71 209 hlineto
          51 -154 rlineto
          69 hlineto
          49 154 rlineto
          -209 72 324 vlineto
          endchar
        </CharString>
        <CharString name="two">
          136 callgsubr
        </CharString>
        <CharString name="twosuperior">
          -195 73 563 rmoveto
          12 3 4 14 vhcurveto
          18 hlineto
          13 3 -4 -12 hvcurveto
          -18 vlineto
          -28 -3 -18 -14 -21 vhcurveto
          -93 -148 rlineto
          -48 172 51 -102 vlineto
          78 129 rlineto
          16 25 6 26 32 vvcurveto
          33 vlineto
          31 -16 17 -35 vhcurveto
          -68 hlineto
          -36 -15 -17 -31 hvcurveto
          -66 59 vlineto
          endchar
        </CharString>
        <CharString name="u">
          -32 231 488 -45 callgsubr
          endchar
        </CharString>
        <CharString name="uacute">
          -32 325 651 76 callsubr
          11 -31 -45 callgsubr
          endchar
        </CharString>
        <CharString name="ucircumflex">
          -36 178 600 63 callsubr
          105 -31 -45 callgsubr
          endchar
        </CharString>
        <CharString name="udieresis">
          -33 134 635 rmoveto
          -102 -94 102 hlineto
          97 -53 -45 callgsubr
          -99 147 498 callsubr
        </CharString>
        <CharString name="ugrave">
          -32 223 519 164 callsubr
          85 -31 -45 callgsubr
          endchar
        </CharString>
        <CharString name="uhungarumlaut">
          -32 262 519 152 callgsubr
          88 -31 -45 callgsubr
          endchar
        </CharString>
        <CharString name="umacron">
          -32 314 619 295 callsubr
          -83 -63 -45 callgsubr
          endchar
        </CharString>
        <CharString name="underscore">
          77 -114 vmoveto
          474 71 -474 hlineto
          endchar
        </CharString>
        <CharString name="uni00A0">
          -252 endchar
        </CharString>
        <CharString name="uni00AD">
          459 callsubr
        </CharString>
        <CharString name="uni00B5">
          -26 228 488 rmoveto
          -380 vlineto
          75 callsubr
          -626 90 138 36 vlineto
          31 22 12 27 9 hvcurveto
          -39 90 488 vlineto
          endchar
        </CharString>
        <CharString name="uni0122">
          -15 148 206 callgsubr
          192 493 37 callgsubr
        </CharString>
        <CharString name="uni0123">
          -37 236 699 rmoveto
          -32 hlineto
          -66 -131 rlineto
          -49 98 vlineto
          -78 -440 94 callgsubr
        </CharString>
        <CharString name="uni0136">
          -13 52 hmoveto
          90 626 -90 hlineto
          96 -855 rmoveto
          32 hlineto
          66 130 rlineto
          49 -98 vlineto
          226 676 rmoveto
          379 callsubr
        </CharString>
        <CharString name="uni0137">
          -40 44 hmoveto
          90 669 -90 hlineto
          93 -898 rmoveto
          32 hlineto
          66 130 rlineto
          49 -98 vlineto
          217 538 368 callgsubr
        </CharString>
        <CharString name="uni013B">
          -96 124 102 callgsubr
          18 123 309 callgsubr
        </CharString>
        <CharString name="uni013C">
          -219 40 102 callgsubr
          94 50 rmoveto
          476 callgsubr
          endchar
        </CharString>
        <CharString name="uni0145">
          13 147 102 callgsubr
          128 676 89 callgsubr
          endchar
        </CharString>
        <CharString name="uni0146">
          -32 130 206 callgsubr
          66 538 26 callsubr
        </CharString>
        <CharString name="uni0156">
          -1 151 206 callgsubr
          -9 603 rmoveto
          88 -95 callsubr
          -170 43 callgsubr
          -88 hlineto
          141 -70 rmoveto
          47 8 20 29 50 vvcurveto
          196 440 callsubr
          -205 -626 90 253 49 hlineto
          94 -253 rlineto
          97 hlineto
          endchar
        </CharString>
        <CharString name="uni0157">
          -159 42 102 callgsubr
          171 539 336 callsubr
        </CharString>
        <CharString name="uni015E">
          -36 133 102 callgsubr
          99 152 -68 callgsubr
        </CharString>
        <CharString name="uni015F">
          -69 114 206 callgsubr
          93 148 -65 callgsubr
        </CharString>
        <CharString name="uni0162">
          -87 105 102 callgsubr
          -100 333 callgsubr
        </CharString>
        <CharString name="uni0163">
          -87 107 102 callgsubr
          -102 333 callgsubr
        </CharString>
        <CharString name="uni0218">
          -36 133 102 callgsubr
          99 152 -68 callgsubr
        </CharString>
        <CharString name="uni0219">
          -69 126 102 callgsubr
          81 148 -65 callgsubr
        </CharString>
        <CharString name="uni021A">
          -87 107 206 callgsubr
          -102 333 callgsubr
        </CharString>
        <CharString name="uni021B">
          -178 79 102 callgsubr
          130 465 289 callgsubr
        </CharString>
        <CharString name="uni02C9">
          24 76 551 387 callgsubr
        </CharString>
        <CharString name="uni0901">
          -397 -136 775 rmoveto
          79 82 -79 hlineto
          -114 -102 427 callgsubr
          -79 -47 vlineto
          -24 -6 -6 -25 vhcurveto
          -88 403 callsubr
          47 -80 vlineto
          endchar
        </CharString>
        <CharString name="uni0902">
          -397 -141 727 rmoveto
          84 95 -84 hlineto
          endchar
        </CharString>
        <CharString name="uni0902.aMatraI">
          -397 22 657 -54 callgsubr
          endchar
        </CharString>
        <CharString name="uni0903">
          -221 -101 401 -54 callgsubr
          -434 vmoveto
          83 95 -83 hlineto
          endchar
        </CharString>
        <CharString name="uni0905">
          151 568 626 rmoveto
          -161 465 callgsubr
          hlineto
          -71 callsubr
          72 vlineto
          endchar
        </CharString>
        <CharString name="uni0906">
          346 762 626 rmoveto
          -355 465 callgsubr
          hlineto
          -75 callgsubr
          endchar
        </CharString>
        <CharString name="uni0907">
          -31 311 341 callsubr
          75 70 -406 43 callsubr
          endchar
        </CharString>
        <CharString name="uni0908">
          -31 311 341 callsubr
          75 70 -75 59 vlineto
          24 6 4 24 vhcurveto
          38 68 -66 hlineto
          -65 312 callsubr
          -71 -241 43 callsubr
          endchar
        </CharString>
        <CharString name="uni09080902">
          -31 311 380 callgsubr
          -241 43 callsubr
          158 142 75 70 -75 hlineto
          32 105 497 callsubr
        </CharString>
        <CharString name="uni0909">
          -42 373 626 rmoveto
          -393 168 callsubr
          221 273 callsubr
          31 vvcurveto
          123 vlineto
          12 -3 9 -5 6 vhcurveto
          80 hlineto
          endchar
        </CharString>
        <CharString name="uni090A">
          105 522 626 rmoveto
          -542 168 callsubr
          199 54 vlineto
          24 5 -5 -25 hvcurveto
          -155 -7 callgsubr
          -20 -70 48 hlineto
          64 28 34 callgsubr
          180 vlineto
          62 160 callgsubr
          -123 3 hlineto
          25 2 14 16 31 vvcurveto
          123 vlineto
          12 -3 9 -5 6 vhcurveto
          229 hlineto
          endchar
        </CharString>
        <CharString name="uni090B">
          309 515 385 rmoveto
          22 4 7 24 vhcurveto
          9 hlineto
          24 4 -7 -22 hvcurveto
          -89 vlineto
          -22 -8 -7 -15 vhcurveto
          -18 hlineto
          -16 -8 9 20 hvcurveto
          -157 260 rmoveto
          368 70 -746 -70 289 -289 -9 hlineto
          503 callsubr
          -14 callsubr
          23 -198 89 198 194 hlineto
          20 6 -3 -22 hvcurveto
          -75 vlineto
          -22 -4 -8 -22 vhcurveto
          -7 hlineto
          -22 -4 8 22 hvcurveto
          41 -90 -55 vlineto
          -50 24 -34 61 vhcurveto
          63 hlineto
          67 25 31 53 hvcurveto
          98 vlineto
          35 -13 14 -22 8 vhcurveto
          5 vlineto
          24 7 11 18 52 vvcurveto
          73 vlineto
          57 -26 31 -70 vhcurveto
          -51 hlineto
          -70 -27 -31 -57 hvcurveto
          -75 vlineto
          -24 4 -17 11 -11 vhcurveto
          -82 hlineto
          endchar
        </CharString>
        <CharString name="uni090C">
          144 495 37 rmoveto
          519 150 callgsubr
          -189 90 189 199 callgsubr
          25 vhcurveto
          60 -307 -4 hlineto
          -63 -27 -28 -57 hvcurveto
          -62 vlineto
          -57 28 -28 64 vhcurveto
          138 71 -110 328 callsubr
          36 -62 callsubr
          endchar
        </CharString>
        <CharString name="uni090D">
          8 186 807 rmoveto
          -80 -47 hlineto
          -24 -5 120 callgsubr
          239 -125 rmoveto
          -445 -70 72 -471 hlineto
          15 callsubr
        </CharString>
        <CharString name="uni090E">
          8 425 626 rmoveto
          -64 287 callsubr
          -291 -70 72 -471 vlineto
          15 callsubr
        </CharString>
        <CharString name="uni090F">
          8 425 626 rmoveto
          -445 -70 72 -471 hlineto
          15 callsubr
        </CharString>
        <CharString name="uni0910">
          8 425 626 rmoveto
          -73 204 callgsubr
          -279 -70 72 -471 hlineto
          15 callsubr
        </CharString>
        <CharString name="uni0911">
          346 762 626 rmoveto
          -355 465 callgsubr
          hlineto
          -75 callgsubr
          -42 255 rmoveto
          -47 vlineto
          -24 -5 120 callgsubr
          56 vlineto
          endchar
        </CharString>
        <CharString name="uni0912">
          345 762 626 rmoveto
          -72 287 callsubr
          -193 465 callgsubr
          vlineto
          -75 callgsubr
          endchar
        </CharString>
        <CharString name="uni0913">
          345 762 626 rmoveto
          -72 204 callgsubr
          -190 465 callgsubr
          hlineto
          -75 callgsubr
          endchar
        </CharString>
        <CharString name="uni0914">
          346 762 626 rmoveto
          -74 hlineto
          -39 193 rlineto
          88 callsubr
          135 -125 41 -37 27 -20 15 -11 rlinecurve
          -183 465 callgsubr
          hlineto
          -75 callgsubr
          endchar
        </CharString>
        <CharString name="uni0915">
          151 568 451 callgsubr
          -588 -70 249 -376 vlineto
          -24 -8 -8 -24 vhcurveto
          -38 hlineto
          -23 -6 5 25 hvcurveto
          207 vlineto
          24 6 5 23 vhcurveto
          29 68 -56 hlineto
          -65 -27 -27 -58 hvcurveto
          -230 45 callsubr
        </CharString>
        <CharString name="uni0915093C">
          151 60 -72 -54 callgsubr
          508 533 rmoveto
          70 -588 -70 249 -376 vlineto
          -24 -8 -8 -24 vhcurveto
          -38 hlineto
          -23 -6 5 25 hvcurveto
          207 vlineto
          24 6 5 23 vhcurveto
          29 68 -56 hlineto
          -65 -27 -27 -58 hvcurveto
          -230 45 callsubr
        </CharString>
        <CharString name="uni0915093C094D">
          55 94 -95 -54 callgsubr
          261 452 217 callsubr
          153 70 -492 -70 249 -376 vlineto
          -107 callgsubr
          350 vlineto
          25 8 7 24 vhcurveto
          136 70 hlineto
          endchar
        </CharString>
        <CharString name="uni0915093C094D0915093C">
          517 85 -96 -54 callgsubr
          370 -95 -54 callgsubr
          140 181 rmoveto
          -104 callsubr
          -199 hlineto
          -4 callsubr
          84 276 vlineto
          503 callgsubr
          -954 -70 249 -376 vlineto
          -107 callgsubr
          380 -8 callsubr
          60 hlineto
          -3 -10 -2 -11 -11 vvcurveto
          -213 45 callsubr
        </CharString>
        <CharString name="uni0915093C094D0924">
          380 94 -95 -54 callgsubr
          536 452 rmoveto
          -275 hlineto
          226 callsubr
          311 vlineto
          167 callsubr
          -812 -70 249 -376 hlineto
          -107 callgsubr
          350 vlineto
          25 8 7 24 vhcurveto
          68 hlineto
          -1 -5 0 -5 -5 vvcurveto
          -282 347 callgsubr
          93 -382 296 callsubr
        </CharString>
        <CharString name="uni0915093C094D092B">
          530 94 -95 -54 callgsubr
          514 35 callsubr
          -253 -104 217 callsubr
          100 -104 vlineto
          528 104 rmoveto
          70 -967 -70 249 -376 vlineto
          -107 callgsubr
          350 vlineto
          25 8 7 24 vhcurveto
          68 -215 hlineto
          -61 30 -28 60 vhcurveto
          63 hlineto
          17 11 3 8 8 hvcurveto
          -89 -96 callsubr
        </CharString>
        <CharString name="uni0915093C094D092B093C">
          530 97 -95 -54 callgsubr
          383 -95 -54 callgsubr
          128 35 callsubr
          -253 -104 217 callsubr
          100 -104 vlineto
          528 104 rmoveto
          70 -967 -70 249 -376 vlineto
          -107 callgsubr
          350 vlineto
          25 8 7 24 vhcurveto
          68 -215 hlineto
          -61 30 -28 60 vhcurveto
          63 hlineto
          17 11 3 8 8 hvcurveto
          -89 -96 callsubr
        </CharString>
        <CharString name="uni0915093C094D092C">
          398 94 -95 -54 callgsubr
          444 414 rmoveto
          75 68 -258 hlineto
          -4 callsubr
          84 334 -231 vlineto
          -89 6 -39 130 callgsubr
          -70 -145 rmoveto
          -24 -5 -47 callgsubr
          -4 -4 0 -4 hhcurveto
          190 478 rmoveto
          -835 -70 249 -376 hlineto
          -107 callgsubr
          380 -8 callsubr
          67 hlineto
          156 callgsubr
          257 callgsubr
          59 vhcurveto
          114 333 callsubr
        </CharString>
        <CharString name="uni0915093C094D092E">
          549 94 -95 -54 callgsubr
          710 216 callgsubr
          -354 rmoveto
          197 callgsubr
          -44 -4 callgsubr
          6 5 23 vhcurveto
          75 hlineto
          -289 194 rmoveto
          289 -124 -253 325 callsubr
          647 205 rmoveto
          -986 -70 249 -376 hlineto
          -107 callgsubr
          330 vlineto
          24 8 8 24 vhcurveto
          68 hlineto
          156 callgsubr
          -156 vlineto
          391 callgsubr
          88 282 callgsubr
        </CharString>
        <CharString name="uni0915093C094D0930">
          151 172 -143 -54 callgsubr
          396 604 rmoveto
          70 -588 13 callgsubr
          380 -8 callsubr
          37 27 callsubr
          -179 121 callgsubr
          202 283 callgsubr
        </CharString>
        <CharString name="uni0915093C094D0930094D">
          49 177 -139 -54 callgsubr
          317 600 rmoveto
          70 -514 13 callgsubr
          350 -8 callsubr
          143 70 -139 hlineto
          226 callsubr
          vlineto
          endchar
        </CharString>
        <CharString name="uni0915094D">
          55 355 452 217 callsubr
          153 70 -492 -70 249 -376 vlineto
          -107 callgsubr
          350 vlineto
          25 8 7 24 vhcurveto
          136 70 hlineto
          endchar
        </CharString>
        <CharString name="uni0915094D0915">
          517 595 180 rmoveto
          -104 callsubr
          -199 hlineto
          -4 callsubr
          84 276 vlineto
          503 callgsubr
          -954 -70 249 -376 vlineto
          -107 callgsubr
          380 -8 callsubr
          60 hlineto
          -3 -10 -2 -11 -11 vvcurveto
          -213 45 callsubr
        </CharString>
        <CharString name="uni0915094D0916">
          631 571 345 rmoveto
          -29 callsubr
          -31 139 -153 hlineto
          226 callsubr
          220 473 callsubr
          477 102 rmoveto
          -1068 -70 249 -376 hlineto
          -107 callgsubr
          350 vlineto
          25 8 7 24 vhcurveto
          67 -295 hlineto
          -60 31 -27 69 vhcurveto
          242 73 -221 hlineto
          -25 276 callgsubr
          28 -36 callsubr
          236 -339 hlineto
          -27 -10 -9 -27 vhcurveto
          -31 246 callgsubr
          164 vlineto
          24 6 5 23 80 callgsubr
          -187 vlineto
          234 callgsubr
          54 hlineto
          20 12 4 10 8 hvcurveto
          -124 87 -101 callgsubr
        </CharString>
        <CharString name="uni0915094D091A">
          365 620 180 rmoveto
          -24 -8 -8 -24 vhcurveto
          -53 -93 callsubr
          174 vlineto
          28 7 2 35 vhcurveto
          24 70 -217 hlineto
          226 callsubr
          301 vlineto
          167 callsubr
          -802 -70 249 -376 hlineto
          -107 callgsubr
          350 vlineto
          25 8 7 24 vhcurveto
          74 324 callsubr
          -183 vlineto
          234 callgsubr
          79 -66 callgsubr
        </CharString>
</ttFont>
